# This file uses centimeters as units for non-parametric coordinates.

mtllib Drawer.mtl
g default
v -6.040967 2.475000 -2.011756
v -0.604097 2.475000 -2.011756
v -0.604097 4.500000 -2.011756
v -6.040967 4.500000 -2.011756
v -6.040967 2.475000 2.344595
v -0.604097 2.475000 2.344595
v -0.604097 4.500000 2.344595
v -6.040967 4.500000 2.344595
v -5.950353 4.500000 -1.906819
v -0.694711 4.500000 -1.906819
v -5.950353 4.500000 2.251093
v -0.694711 4.500000 2.251093
v -5.950353 2.597221 -1.906819
v -0.694711 2.597221 -1.906819
v -5.950353 2.597221 2.251093
v -0.694711 2.597221 2.251093
v -2.611270 3.413458 2.332767
v -2.717496 3.521533 2.332767
v -2.882948 3.607303 2.332767
v -3.091429 3.662370 2.332767
v -3.322532 3.681345 2.332767
v -3.553635 3.662370 2.332767
v -3.762116 3.607303 2.332767
v -3.927567 3.521533 2.332767
v -4.033793 3.413458 2.332767
v -4.070396 3.293655 2.332767
v -2.574667 3.293655 2.332767
v -2.611270 3.413458 2.361030
v -2.717496 3.521533 2.361030
v -2.882948 3.607303 2.361030
v -3.091429 3.662370 2.361030
v -3.322532 3.681345 2.361030
v -3.553635 3.662370 2.361030
v -3.762116 3.607303 2.361030
v -3.927567 3.521533 2.361030
v -4.033793 3.413458 2.361030
v -4.070396 3.293655 2.361030
v -2.574667 3.293655 2.361030
v -3.322532 3.293655 2.332767
v -3.322532 3.293655 2.361030
v -3.840538 3.341527 2.355902
v -3.741608 3.341527 2.534090
v -3.482605 3.341527 2.644215
v -3.162459 3.341527 2.644215
v -2.903456 3.341527 2.534090
v -2.804526 3.341527 2.355902
v -3.815185 3.430689 2.355902
v -3.721097 3.430689 2.525369
v -3.474771 3.430689 2.630104
v -3.170294 3.430689 2.630104
v -2.923967 3.430689 2.525369
v -2.829879 3.430689 2.355902
v -3.741608 3.511123 2.355902
v -3.661572 3.511123 2.500059
v -3.452034 3.511123 2.589153
v -3.193030 3.511123 2.589153
v -2.983493 3.511123 2.500059
v -2.903456 3.511123 2.355902
v -3.627008 3.574956 2.355902
v -3.568859 3.574956 2.460638
v -3.416620 3.574956 2.525369
v -3.228444 3.574956 2.525369
v -3.076205 3.574956 2.460638
v -3.018056 3.574956 2.355902
v -3.482605 3.615939 2.355902
v -3.452034 3.615939 2.410965
v -3.371997 3.615939 2.444996
v -3.273067 3.615939 2.444996
v -3.193030 3.615939 2.410965
v -3.162459 3.615939 2.355902
v -3.322532 3.630061 2.355902
v -3.848013 3.342583 2.357926
v -3.746499 3.342373 2.539994
v -3.484076 3.342190 2.651824
v -3.160988 3.342190 2.651824
v -2.898565 3.342373 2.539994
v -2.797051 3.342583 2.357926
v -3.821732 3.434469 2.357674
v -3.725653 3.433893 2.530851
v -3.476179 3.433277 2.637343
v -3.168886 3.433277 2.637343
v -2.919411 3.433893 2.530851
v -2.823332 3.434469 2.357674
v -3.746305 3.517207 2.357174
v -3.665068 3.516650 2.504339
v -3.453197 3.515944 2.595193
v -3.191866 3.515944 2.595193
v -2.979996 3.516650 2.504339
v -2.898759 3.517207 2.357174
v -3.629934 3.582146 2.356694
v -3.571157 3.581857 2.463497
v -3.417438 3.581432 2.529667
v -3.227626 3.581432 2.529667
v -3.073907 3.581857 2.463497
v -3.015131 3.582146 2.356694
v -3.483999 3.623611 2.356280
v -3.453170 3.623536 2.412407
v -3.372414 3.623415 2.447237
v -3.272650 3.623415 2.447237
v -3.191894 3.623536 2.412407
v -3.161065 3.623611 2.356280
v -3.322532 3.637869 2.355995
vt 0.375000 0.193750
vt 0.487500 0.193750
vt 0.487500 0.250000
vt 0.375000 0.250000
vt 0.375000 0.193750
vt 0.487500 0.193750
vt 0.487500 0.250000
vt 0.375000 0.250000
vt 0.375000 0.193750
vt 0.487500 0.193750
vt 0.487500 0.250000
vt 0.375000 0.250000
vt 0.487500 0.250000
vt 0.375000 0.250000
vt 0.375000 0.250000
vt 0.487500 0.250000
vt 0.487500 0.250000
vt 0.375000 0.250000
vt 0.375000 0.250000
vt 0.487500 0.250000
vt 0.375000 0.312500
vt 0.387500 0.312500
vt 0.387500 0.687500
vt 0.375000 0.687500
vt 0.400000 0.312500
vt 0.400000 0.687500
vt 0.412500 0.312500
vt 0.412500 0.687500
vt 0.425000 0.312500
vt 0.425000 0.687500
vt 0.437500 0.312500
vt 0.437500 0.687500
vt 0.450000 0.312500
vt 0.450000 0.687500
vt 0.462500 0.312500
vt 0.462500 0.687500
vt 0.475000 0.312500
vt 0.475000 0.687500
vt 0.415625 0.234375
vt 0.415625 0.765625
vt 0.634375 0.234375
vt 0.625000 0.312500
vt 0.625000 0.687500
vt 0.634375 0.765625
vt 0.626409 0.064408
vt 0.648603 0.107966
vt 0.500000 0.156250
vt 0.591842 0.029841
vt 0.548284 0.007647
vt 0.500000 -0.000000
vt 0.451716 0.007647
vt 0.408159 0.029841
vt 0.373591 0.064409
vt 0.351397 0.107966
vt 0.648603 0.892034
vt 0.626409 0.935591
vt 0.500000 0.843750
vt 0.591841 0.970159
vt 0.548284 0.992353
vt 0.500000 1.000000
vt 0.451716 0.992353
vt 0.408159 0.970159
vt 0.373591 0.935591
vt 0.351397 0.892034
vt 0.450000 0.600000
vt 0.450000 0.500000
vt 0.550000 0.500000
vt 0.550000 0.600000
vt 0.650000 0.500000
vt 0.650000 0.600000
vt 0.750000 0.500000
vt 0.750000 0.600000
vt 0.850000 0.500000
vt 0.850000 0.600000
vt 0.950000 0.500000
vt 0.950000 0.600000
vt 0.450000 0.700000
vt 0.550000 0.700000
vt 0.650000 0.700000
vt 0.750000 0.700000
vt 0.850000 0.700000
vt 0.950000 0.700000
vt 0.450000 0.800000
vt 0.550000 0.800000
vt 0.650000 0.800000
vt 0.750000 0.800000
vt 0.850000 0.800000
vt 0.950000 0.800000
vt 0.450000 0.900000
vt 0.550000 0.900000
vt 0.650000 0.900000
vt 0.750000 0.900000
vt 0.850000 0.900000
vt 0.950000 0.900000
vt 0.475000 1.000000
vt 0.575000 1.000000
vt 0.675000 1.000000
vt 0.775000 1.000000
vt 0.875000 1.000000
vt 0.550000 0.600000
vt 0.550000 0.500000
vt 0.450000 0.500000
vt 0.450000 0.600000
vt 0.650000 0.600000
vt 0.650000 0.500000
vt 0.750000 0.600000
vt 0.750000 0.500000
vt 0.850000 0.600000
vt 0.850000 0.500000
vt 0.950000 0.600000
vt 0.950000 0.500000
vt 0.550000 0.700000
vt 0.450000 0.700000
vt 0.650000 0.700000
vt 0.750000 0.700000
vt 0.850000 0.700000
vt 0.950000 0.700000
vt 0.550000 0.800000
vt 0.450000 0.800000
vt 0.650000 0.800000
vt 0.750000 0.800000
vt 0.850000 0.800000
vt 0.950000 0.800000
vt 0.550000 0.900000
vt 0.450000 0.900000
vt 0.650000 0.900000
vt 0.750000 0.900000
vt 0.850000 0.900000
vt 0.950000 0.900000
vt 0.525000 1.000000
vt 0.625000 1.000000
vt 0.725000 1.000000
vt 0.825000 1.000000
vt 0.925000 1.000000
vt 0.450000 0.500000
vt 0.550000 0.500000
vt 0.650000 0.500000
vt 0.750000 0.500000
vt 0.850000 0.500000
vt 0.950000 0.500000
vt 0.950000 0.600000
vt 0.450000 0.600000
vt 0.950000 0.700000
vt 0.450000 0.700000
vt 0.950000 0.800000
vt 0.450000 0.800000
vt 0.950000 0.900000
vt 0.450000 0.900000
vt 0.925000 1.000000
vt 0.925000 1.000000
vt 0.475000 1.000000
vn 0.000000 0.000000 1.000000
vn 0.000000 0.000000 1.000000
vn 0.000000 0.000000 1.000000
vn 0.000000 0.000000 1.000000
vn 0.000000 0.000000 -1.000000
vn 0.000000 0.000000 -1.000000
vn 0.000000 0.000000 -1.000000
vn 0.000000 0.000000 -1.000000
vn 0.000000 -1.000000 0.000000
vn 0.000000 -1.000000 0.000000
vn 0.000000 -1.000000 0.000000
vn 0.000000 -1.000000 0.000000
vn 1.000000 0.000000 0.000000
vn 1.000000 0.000000 0.000000
vn 1.000000 0.000000 0.000000
vn 1.000000 0.000000 0.000000
vn 0.000000 1.000000 0.000000
vn 0.000000 1.000000 0.000000
vn 0.000000 1.000000 0.000000
vn 0.000000 1.000000 0.000000
vn -1.000000 0.000000 0.000000
vn -1.000000 0.000000 0.000000
vn -1.000000 0.000000 0.000000
vn -1.000000 0.000000 0.000000
vn 0.000000 1.000000 -0.000001
vn 0.000000 1.000000 -0.000001
vn 0.000000 1.000000 -0.000001
vn 0.000000 1.000000 -0.000001
vn 0.000000 1.000000 0.000002
vn 0.000000 1.000000 0.000002
vn 0.000000 1.000000 0.000002
vn 0.000000 1.000000 0.000002
vn 0.000000 0.000000 1.000000
vn 0.000000 0.000000 1.000000
vn 0.000000 0.000000 1.000000
vn 0.000000 0.000000 1.000000
vn 1.000000 0.000000 0.000000
vn 1.000000 0.000000 0.000000
vn 1.000000 0.000000 0.000000
vn 1.000000 0.000000 0.000000
vn 0.000000 0.000000 -1.000000
vn 0.000000 0.000000 -1.000000
vn 0.000000 0.000000 -1.000000
vn 0.000000 0.000000 -1.000000
vn -1.000000 0.000000 0.000000
vn -1.000000 0.000000 0.000000
vn -1.000000 0.000000 0.000000
vn -1.000000 0.000000 0.000000
vn 0.847321 0.531082 0.000000
vn 0.580820 0.814032 0.000000
vn 0.580820 0.814032 0.000000
vn 0.847321 0.531082 0.000000
vn 0.352466 0.935825 0.000000
vn 0.352466 0.935825 0.000000
vn 0.166097 0.986109 0.000000
vn 0.166097 0.986109 0.000000
vn 0.000000 1.000000 0.000000
vn 0.000000 1.000000 0.000000
vn -0.166097 0.986109 0.000000
vn -0.166097 0.986109 0.000000
vn -0.352466 0.935825 0.000000
vn -0.352466 0.935825 0.000000
vn -0.580820 0.814032 0.000000
vn -0.580820 0.814032 0.000000
vn -0.847320 0.531083 0.000000
vn -0.847320 0.531083 0.000000
vn -0.956359 0.292194 0.000000
vn -0.956359 0.292194 0.000000
vn 0.956360 0.292191 0.000000
vn 0.956360 0.292191 0.000000
vn 0.000000 0.000000 -1.000000
vn 0.000000 0.000000 -1.000000
vn 0.000000 0.000000 -1.000000
vn 0.000001 0.000000 -1.000000
vn 0.000000 0.000000 -1.000000
vn 0.000000 0.000000 -1.000000
vn 0.000000 0.000000 -1.000000
vn 0.000000 0.000000 -1.000000
vn 0.000000 0.000000 -1.000000
vn 0.000000 0.000000 -1.000000
vn 0.000000 0.000000 -1.000000
vn 0.000000 0.000000 -1.000000
vn 0.000000 0.000000 1.000000
vn 0.000000 0.000000 1.000000
vn -0.000000 0.000000 1.000000
vn 0.000000 0.000000 1.000000
vn 0.000000 0.000000 1.000000
vn 0.000000 0.000000 1.000000
vn -0.000001 0.000000 1.000000
vn -0.000000 0.000000 1.000000
vn 0.000000 0.000000 1.000000
vn 0.000000 0.000000 1.000000
vn 0.000000 0.000000 1.000000
vn 0.000000 0.000000 1.000000
vn 0.000000 -1.000000 0.000000
vn 0.000000 -1.000000 0.000000
vn 0.000000 -1.000000 0.000000
vn 0.000000 -1.000000 0.000000
vn 0.000000 -1.000000 0.000000
vn 0.000000 -1.000000 0.000000
vn 0.000000 -1.000000 0.000000
vn 0.000000 -1.000000 0.000000
vn -0.795556 0.413355 0.442976
vn -0.847707 0.242001 0.472047
vn -0.629627 0.218471 0.745547
vn -0.588675 0.389240 0.708487
vn -0.191652 0.170511 0.966538
vn -0.182529 0.319008 0.930009
vn 0.191653 0.170512 0.966538
vn 0.182528 0.319008 0.930009
vn 0.629629 0.218472 0.745545
vn 0.588676 0.389240 0.708487
vn 0.847708 0.242000 0.472046
vn 0.795557 0.413354 0.442976
vn -0.615603 0.709580 0.342825
vn -0.459291 0.678086 0.573804
vn -0.150364 0.594456 0.789945
vn 0.150365 0.594456 0.789945
vn 0.459292 0.678085 0.573804
vn 0.615604 0.709580 0.342825
vn -0.416823 0.878797 0.232324
vn -0.313165 0.856735 0.409797
vn -0.106222 0.801938 0.587888
vn 0.106222 0.801939 0.587887
vn 0.313165 0.856735 0.409797
vn 0.416823 0.878797 0.232326
vn -0.241707 0.960924 0.134916
vn -0.180399 0.950758 0.252025
vn -0.060187 0.928974 0.365218
vn 0.060187 0.928975 0.365217
vn 0.180399 0.950757 0.252025
vn 0.241707 0.960924 0.134919
vn -0.000000 0.993134 0.116981
vn 0.587734 -0.388703 -0.709563
vn 0.628757 -0.217659 -0.746518
vn 0.848462 -0.241260 -0.471070
vn 0.796298 -0.412856 -0.442108
vn 0.181778 -0.318020 -0.930495
vn 0.190825 -0.169778 -0.966831
vn -0.181777 -0.318021 -0.930495
vn -0.190825 -0.169780 -0.966830
vn -0.587734 -0.388703 -0.709562
vn -0.628757 -0.217659 -0.746518
vn -0.796298 -0.412856 -0.442108
vn -0.848462 -0.241258 -0.471070
vn 0.458329 -0.678627 -0.573934
vn 0.615267 -0.710463 -0.341599
vn 0.149792 -0.594279 -0.790187
vn -0.149793 -0.594279 -0.790186
vn -0.458329 -0.678628 -0.573933
vn -0.615266 -0.710464 -0.341598
vn 0.312641 -0.856975 -0.409694
vn 0.416651 -0.879142 -0.231327
vn 0.105813 -0.801844 -0.588091
vn -0.105813 -0.801844 -0.588090
vn -0.312641 -0.856976 -0.409693
vn -0.416650 -0.879142 -0.231326
vn 0.180170 -0.950835 -0.251896
vn 0.241686 -0.961032 -0.134183
vn 0.059904 -0.928962 -0.365297
vn -0.059904 -0.928962 -0.365297
vn -0.180170 -0.950835 -0.251897
vn -0.241686 -0.961032 -0.134183
vn 0.000000 -0.993153 -0.116821
vn -0.112694 -0.991686 0.062122
vn -0.112694 -0.991686 0.062122
vn -0.070987 -0.994304 0.079503
vn -0.069069 -0.994375 0.080297
vn -0.018518 -0.995824 0.089393
vn -0.018260 -0.995832 0.089356
vn 0.018518 -0.995824 0.089393
vn 0.018259 -0.995832 0.089356
vn 0.070986 -0.994304 0.079504
vn 0.069069 -0.994375 0.080297
vn 0.112694 -0.991686 0.062122
vn 0.112694 -0.991686 0.062122
vn 0.239127 0.066854 -0.968684
vn 0.239127 0.066854 -0.968684
vn 0.191019 0.102337 -0.976237
vn 0.190212 0.102924 -0.976333
vn -0.239124 0.066852 -0.968685
vn -0.190214 0.102921 -0.976333
vn -0.191020 0.102334 -0.976237
vn -0.239124 0.066852 -0.968685
vn 0.104113 0.123646 -0.986850
vn 0.103503 0.123519 -0.986930
vn -0.103505 0.123515 -0.986930
vn -0.104114 0.123642 -0.986850
vn 0.042820 0.092559 -0.994786
vn 0.042646 0.092389 -0.994809
vn -0.042645 0.092386 -0.994810
vn -0.042818 0.092555 -0.994787
vn 0.012414 0.050390 -0.998653
vn 0.012385 0.050323 -0.998656
vn -0.012385 0.050323 -0.998656
vn -0.012414 0.050389 -0.998653
vn -0.000001 0.030056 -0.999548
vn -0.000001 0.030056 -0.999548
s off
g polySurface10
usemtl initialShadingGroup
f 6/10/1 7/11/2 8/12/3 5/9/4
f 1/5/5 4/8/6 3/7/7 2/6/8
f 1/1/9 2/2/10 6/10/11 5/9/12
f 2/2/13 3/3/14 7/11/15 6/10/16
f 14/17/17 13/18/18 15/19/19 16/20/20
f 4/4/21 1/1/22 5/9/23 8/12/24
s 1
f 3/3/25 4/4/26 9/14/27 10/13/28
f 4/4/26 8/12/29 11/15/30 9/14/27
f 8/12/29 7/11/31 12/16/32 11/15/30
f 7/11/31 3/3/25 10/13/28 12/16/32
s off
f 10/13/33 9/14/34 13/18/35 14/17/36
f 9/14/37 11/15/38 15/19/39 13/18/40
f 11/15/41 12/16/42 16/20/43 15/19/44
f 12/16/45 10/13/46 14/17/47 16/20/48
s 2
f 17/21/49 18/22/50 29/23/51 28/24/52
f 18/22/50 19/25/53 30/26/54 29/23/51
f 19/25/53 20/27/55 31/28/56 30/26/54
f 20/27/55 21/29/57 32/30/58 31/28/56
f 21/29/57 22/31/59 33/32/60 32/30/58
f 22/31/59 23/33/61 34/34/62 33/32/60
f 23/33/61 24/35/63 35/36/64 34/34/62
f 24/35/63 25/37/65 36/38/66 35/36/64
f 25/37/65 26/39/67 37/40/68 36/38/66
f 27/41/69 17/42/49 28/43/52 38/44/70
s 3
f 18/45/71 17/46/72 39/47/73
f 19/48/74 18/45/71 39/47/73
f 20/49/75 19/48/74 39/47/73
f 21/50/76 20/49/75 39/47/73
f 22/51/77 21/50/76 39/47/73
f 23/52/78 22/51/77 39/47/73
f 24/53/79 23/52/78 39/47/73
f 25/54/80 24/53/79 39/47/73
f 26/39/81 25/54/80 39/47/73
f 17/46/72 27/41/82 39/47/73
s 4
f 28/55/83 29/56/84 40/57/85
f 29/56/84 30/58/86 40/57/85
f 30/58/86 31/59/87 40/57/85
f 31/59/87 32/60/88 40/57/85
f 32/60/88 33/61/89 40/57/85
f 33/61/89 34/62/90 40/57/85
f 34/62/90 35/63/91 40/57/85
f 35/63/91 36/64/92 40/57/85
f 36/64/92 37/40/93 40/57/85
f 38/44/94 28/55/83 40/57/85
s off
f 26/39/95 39/47/96 40/57/97 37/40/98
f 39/47/99 27/41/100 38/44/101 40/57/102
s 5
f 78/65/103 72/66/104 73/67/105 79/68/106
f 79/68/106 73/67/105 74/69/107 80/70/108
f 80/70/108 74/69/107 75/71/109 81/72/110
f 81/72/110 75/71/109 76/73/111 82/74/112
f 82/74/112 76/73/111 77/75/113 83/76/114
f 84/77/115 78/65/103 79/68/106 85/78/116
f 85/78/116 79/68/106 80/70/108 86/79/117
f 86/79/117 80/70/108 81/72/110 87/80/118
f 87/80/118 81/72/110 82/74/112 88/81/119
f 88/81/119 82/74/112 83/76/114 89/82/120
f 90/83/121 84/77/115 85/78/116 91/84/122
f 91/84/122 85/78/116 86/79/117 92/85/123
f 92/85/123 86/79/117 87/80/118 93/86/124
f 93/86/124 87/80/118 88/81/119 94/87/125
f 94/87/125 88/81/119 89/82/120 95/88/126
f 96/89/127 90/83/121 91/84/122 97/90/128
f 97/90/128 91/84/122 92/85/123 98/91/129
f 98/91/129 92/85/123 93/86/124 99/92/130
f 99/92/130 93/86/124 94/87/125 100/93/131
f 100/93/131 94/87/125 95/88/126 101/94/132
f 97/90/128 102/95/133 96/89/127
f 98/91/129 102/96/133 97/90/128
f 99/92/130 102/97/133 98/91/129
f 100/93/131 102/98/133 99/92/130
f 101/94/132 102/99/133 100/93/131
s 6
f 48/100/134 42/101/135 41/102/136 47/103/137
f 49/104/138 43/105/139 42/101/135 48/100/134
f 50/106/140 44/107/141 43/105/139 49/104/138
f 51/108/142 45/109/143 44/107/141 50/106/140
f 52/110/144 46/111/145 45/109/143 51/108/142
f 54/112/146 48/100/134 47/103/137 53/113/147
f 55/114/148 49/104/138 48/100/134 54/112/146
f 56/115/149 50/106/140 49/104/138 55/114/148
f 57/116/150 51/108/142 50/106/140 56/115/149
f 58/117/151 52/110/144 51/108/142 57/116/150
f 60/118/152 54/112/146 53/113/147 59/119/153
f 61/120/154 55/114/148 54/112/146 60/118/152
f 62/121/155 56/115/149 55/114/148 61/120/154
f 63/122/156 57/116/150 56/115/149 62/121/155
f 64/123/157 58/117/151 57/116/150 63/122/156
f 66/124/158 60/118/152 59/119/153 65/125/159
f 67/126/160 61/120/154 60/118/152 66/124/158
f 68/127/161 62/121/155 61/120/154 67/126/160
f 69/128/162 63/122/156 62/121/155 68/127/161
f 70/129/163 64/123/157 63/122/156 69/128/162
f 71/130/164 66/124/158 65/125/159
f 71/131/164 67/126/160 66/124/158
f 71/132/164 68/127/161 67/126/160
f 71/133/164 69/128/162 68/127/161
f 71/134/164 70/129/163 69/128/162
s 7
f 72/66/165 41/135/166 42/136/167 73/67/168
f 73/67/168 42/136/167 43/137/169 74/69/170
f 74/69/170 43/137/169 44/138/171 75/71/172
f 75/71/172 44/138/171 45/139/173 76/73/174
f 76/73/174 45/139/173 46/140/175 77/75/176
s 8
f 77/75/177 46/140/178 52/141/179 83/76/180
f 72/66/181 78/65/182 47/142/183 41/135/184
f 83/76/180 52/141/179 58/143/185 89/82/186
f 78/65/182 84/77/187 53/144/188 47/142/183
f 89/82/186 58/143/185 64/145/189 95/88/190
f 84/77/187 90/83/191 59/146/192 53/144/188
f 95/88/190 64/145/189 70/147/193 101/94/194
f 90/83/191 96/89/195 65/148/196 59/146/192
f 101/94/194 70/147/193 71/149/197 102/150/198
f 96/89/195 102/95/198 71/151/197 65/148/196
