# This file uses centimeters as units for non-parametric coordinates.

mtllib Komode.mtl
g default
v -6.500000 -5.000000 2.500000
v 6.500000 -5.000000 2.500000
v -6.500000 5.000000 2.500000
v 6.500000 5.000000 2.500000
v -6.500000 5.000000 -2.500000
v 6.500000 5.000000 -2.500000
v -6.500000 -5.000000 -2.500000
v 6.500000 -5.000000 -2.500000
v -6.040967 -4.500000 2.500000
v -6.040967 4.500000 2.500000
v 6.040967 -4.500000 2.500000
v 6.040967 4.500000 2.500000
v -0.604098 -4.500000 2.500000
v -0.604097 4.500000 2.500000
v 0.604097 -4.500000 2.500000
v 0.604097 4.500000 2.500000
v -6.040967 2.475000 2.500000
v -0.604097 2.475000 2.500000
v 0.604097 2.475000 2.500000
v 6.040967 2.475000 2.500000
v 6.040967 2.227500 2.500000
v 0.604097 2.227500 2.500000
v -0.604097 2.227500 2.500000
v -6.040967 2.227500 2.500000
v 6.040967 0.202500 2.500000
v 0.604097 0.202500 2.500000
v -0.604097 0.202500 2.500000
v -6.040967 0.202500 2.500000
v -6.040967 -0.022500 2.500000
v -0.604097 -0.022500 2.500000
v 0.604097 -0.022500 2.500000
v 6.040967 -0.022500 2.500000
v 6.040967 -2.047500 2.500000
v 0.604097 -2.047500 2.500000
v -0.604097 -2.047500 2.500000
v -6.040967 -2.047500 2.500000
v 6.040967 -2.475000 2.500000
v 0.604097 -2.475000 2.500000
v -0.604097 -2.475000 2.500000
v -6.040967 -2.475000 2.500000
v -6.040967 -4.500000 -2.421807
v -0.604097 -4.500000 -2.421807
v -0.604097 -2.475000 -2.421807
v -6.040967 -2.475000 -2.421807
v 6.040967 -2.475000 -2.421807
v 0.604097 -2.475000 -2.421807
v 0.604097 -4.500000 -2.421807
v 6.040967 -4.500000 -2.421807
v 0.604097 2.475000 -2.421807
v 0.604097 4.500000 -2.421807
v 6.040967 2.475000 -2.421807
v 6.040967 4.500000 -2.421807
v -6.040967 2.475000 -2.421807
v -0.604097 2.475000 -2.421807
v -0.604097 4.500000 -2.421807
v -6.040967 4.500000 -2.421807
v 6.040967 2.025000 -2.421807
v 0.604097 2.025000 -2.421807
v 0.604097 0.202500 -2.421807
v 6.040967 0.202500 -2.421807
v -0.604097 0.202500 -2.421807
v -6.040967 0.202500 -2.421807
v -0.604097 2.025000 -2.421807
v -6.040967 2.025000 -2.421807
v 0.604097 -0.225000 -2.421807
v 6.040967 -0.225000 -2.421807
v 0.604097 -2.047500 -2.421807
v 6.040967 -2.047500 -2.421807
v -0.604097 -2.047500 -2.421807
v -6.040967 -2.047500 -2.421807
v -0.604097 -0.225000 -2.421807
v -6.040967 -0.225000 -2.421807
v -6.327017 -6.413434 2.344595
v -5.327017 -6.413434 2.344595
v -6.482422 -5.000000 2.500000
v -5.171612 -5.000000 2.500000
v -6.482422 -5.000000 1.189189
v -5.171612 -5.000000 1.189189
v -6.327017 -6.413434 1.344595
v -5.327017 -6.413434 1.344595
v -6.327017 -6.413434 -2.344595
v -6.327017 -6.413434 -1.344595
v -6.482422 -5.000000 -2.500000
v -6.482422 -5.000000 -1.189190
v -5.171612 -5.000000 -2.500000
v -5.171612 -5.000000 -1.189190
v -5.327017 -6.413434 -2.344595
v -5.327017 -6.413434 -1.344595
v 6.344595 -6.413434 2.344595
v 6.344595 -6.413434 1.344595
v 6.500000 -5.000000 2.500000
v 6.500000 -5.000000 1.189190
v 5.189190 -5.000000 2.500000
v 5.189190 -5.000000 1.189190
v 5.344595 -6.413434 2.344595
v 5.344595 -6.413434 1.344595
v 6.344595 -6.413434 -2.344595
v 5.344595 -6.413434 -2.344595
v 6.500000 -5.000000 -2.500000
v 5.189190 -5.000000 -2.500000
v 6.500000 -5.000000 -1.189189
v 5.189190 -5.000000 -1.189189
v 6.344595 -6.413434 -1.344595
v 5.344595 -6.413434 -1.344595
vt 0.412500 0.018750
vt 0.587500 0.018750
vt 0.397500 0.201125
vt 0.602500 0.201125
vt 0.375000 0.500000
vt 0.625000 0.500000
vt 0.375000 0.750000
vt 0.625000 0.750000
vt 0.431250 1.000000
vt 0.568750 1.000000
vt 0.875000 0.000000
vt 0.875000 0.250000
vt 0.125000 0.000000
vt 0.125000 0.250000
vt 0.375000 0.000000
vt 0.375000 0.250000
vt 0.625000 0.000000
vt 0.625000 0.250000
vt 0.487500 0.000000
vt 0.487500 0.250000
vt 0.512500 0.000000
vt 0.512500 0.250000
vt 0.375000 0.193750
vt 0.487500 0.193750
vt 0.512500 0.193750
vt 0.625000 0.193750
vt 0.625000 0.181250
vt 0.512500 0.181250
vt 0.487500 0.181250
vt 0.375000 0.181250
vt 0.625000 0.130625
vt 0.512500 0.130625
vt 0.487500 0.130625
vt 0.375000 0.130625
vt 0.375000 0.093437
vt 0.375000 0.118750
vt 0.487500 0.118750
vt 0.512500 0.118750
vt 0.625000 0.118750
vt 0.625000 0.093437
vt 0.625000 0.068125
vt 0.512500 0.068125
vt 0.487500 0.068125
vt 0.375000 0.068125
vt 0.625000 0.056250
vt 0.512500 0.056250
vt 0.487500 0.056250
vt 0.375000 0.056250
vt 0.375000 0.000000
vt 0.487500 0.000000
vt 0.487500 0.056250
vt 0.375000 0.056250
vt 0.625000 0.056250
vt 0.512500 0.056250
vt 0.512500 0.000000
vt 0.625000 0.000000
vt 0.512500 0.250000
vt 0.512500 0.193750
vt 0.625000 0.193750
vt 0.625000 0.250000
vt 0.375000 0.193750
vt 0.487500 0.193750
vt 0.487500 0.250000
vt 0.375000 0.250000
vt 0.625000 0.181250
vt 0.512500 0.181250
vt 0.512500 0.130625
vt 0.625000 0.130625
vt 0.375000 0.130625
vt 0.487500 0.130625
vt 0.487500 0.181250
vt 0.375000 0.181250
vt 0.625000 0.118750
vt 0.512500 0.118750
vt 0.512500 0.068125
vt 0.625000 0.068125
vt 0.375000 0.068125
vt 0.487500 0.068125
vt 0.487500 0.118750
vt 0.375000 0.118750
vt 0.375000 0.000000
vt 0.625000 0.000000
vt 0.625000 0.250000
vt 0.375000 0.250000
vt 0.625000 0.500000
vt 0.375000 0.500000
vt 0.625000 0.750000
vt 0.375000 0.750000
vt 0.625000 1.000000
vt 0.375000 1.000000
vt 0.875000 0.000000
vt 0.875000 0.250000
vt 0.125000 0.000000
vt 0.125000 0.250000
vt 0.375000 0.000000
vt 0.625000 0.000000
vt 0.625000 0.250000
vt 0.375000 0.250000
vt 0.625000 0.500000
vt 0.375000 0.500000
vt 0.625000 0.750000
vt 0.375000 0.750000
vt 0.625000 1.000000
vt 0.375000 1.000000
vt 0.875000 0.000000
vt 0.875000 0.250000
vt 0.125000 0.000000
vt 0.125000 0.250000
vt 0.375000 0.000000
vt 0.625000 0.000000
vt 0.625000 0.250000
vt 0.375000 0.250000
vt 0.625000 0.500000
vt 0.375000 0.500000
vt 0.625000 0.750000
vt 0.375000 0.750000
vt 0.625000 1.000000
vt 0.375000 1.000000
vt 0.875000 0.000000
vt 0.875000 0.250000
vt 0.125000 0.000000
vt 0.125000 0.250000
vt 0.375000 0.000000
vt 0.625000 0.000000
vt 0.625000 0.250000
vt 0.375000 0.250000
vt 0.625000 0.500000
vt 0.375000 0.500000
vt 0.625000 0.750000
vt 0.375000 0.750000
vt 0.625000 1.000000
vt 0.375000 1.000000
vt 0.875000 0.000000
vt 0.875000 0.250000
vt 0.125000 0.000000
vt 0.125000 0.250000
vn 0.000000 0.000000 1.000000
vn 0.000000 0.000000 1.000000
vn 0.000000 0.000000 1.000000
vn 0.000000 0.000000 1.000000
vn 0.000000 1.000000 0.000000
vn 0.000000 1.000000 0.000000
vn 0.000000 1.000000 0.000000
vn 0.000000 1.000000 0.000000
vn 0.000000 0.000000 -1.000000
vn 0.000000 0.000000 -1.000000
vn 0.000000 0.000000 -1.000000
vn 0.000000 0.000000 -1.000000
vn 0.000000 -1.000000 0.000000
vn 0.000000 -1.000000 0.000000
vn 0.000000 -1.000000 0.000000
vn 0.000000 -1.000000 0.000000
vn 1.000000 0.000000 0.000000
vn 1.000000 0.000000 0.000000
vn 1.000000 0.000000 0.000000
vn 1.000000 0.000000 0.000000
vn -1.000000 0.000000 0.000000
vn -1.000000 0.000000 0.000000
vn -1.000000 0.000000 0.000000
vn -1.000000 0.000000 0.000000
vn -0.000000 0.000000 1.000000
vn 0.000000 0.000000 1.000000
vn 0.000000 0.000000 1.000000
vn 0.000000 0.000000 1.000000
vn -0.000000 0.000000 1.000000
vn 0.000000 0.000000 1.000000
vn 0.000000 0.000000 1.000000
vn 0.000000 0.000000 1.000000
vn -0.000000 0.000000 1.000000
vn 0.000000 0.000000 1.000000
vn 0.000000 0.000000 1.000000
vn 0.000000 0.000000 1.000000
vn 0.000000 0.000000 1.000000
vn 0.000000 0.000000 1.000000
vn 0.000000 0.000000 1.000000
vn 0.000000 0.000000 1.000000
vn 0.000000 0.000000 1.000000
vn 0.000000 0.000000 1.000000
vn 0.000000 0.000000 1.000000
vn 0.000000 0.000000 1.000000
vn -0.000001 0.000000 1.000000
vn -0.000000 0.000000 1.000000
vn -0.000000 0.000000 1.000000
vn -0.000000 0.000000 1.000000
vn -0.000000 0.000000 1.000000
vn 0.000000 0.000000 1.000000
vn 0.000000 0.000000 1.000000
vn 0.000000 0.000000 1.000000
vn 0.000000 0.000000 1.000000
vn 0.000000 0.000000 1.000000
vn 0.000000 0.000000 1.000000
vn 0.000000 0.000000 1.000000
vn 0.000000 0.000000 1.000000
vn 0.000000 0.000000 1.000000
vn -0.000000 0.000000 1.000000
vn -0.000000 0.000000 1.000000
vn 0.000000 0.000000 1.000000
vn 0.000000 0.000000 1.000000
vn -0.000000 0.000000 1.000000
vn -0.000000 0.000000 1.000000
vn 0.000000 0.000000 1.000000
vn 0.000000 0.000000 1.000000
vn 0.000000 0.000000 1.000000
vn -0.000000 0.000000 1.000000
vn 0.000000 0.000000 1.000000
vn 0.000000 0.000000 1.000000
vn 0.000000 0.000000 1.000000
vn 0.000000 0.000000 1.000000
vn 0.000000 0.000000 1.000000
vn 0.000000 0.000000 1.000000
vn 0.000000 0.000000 1.000000
vn 0.000000 0.000000 1.000000
vn -0.000000 0.000000 1.000000
vn 0.000000 0.000000 1.000000
vn 0.000000 0.000000 1.000000
vn 0.000000 0.000000 1.000000
vn 0.000000 0.000000 1.000000
vn 0.000000 0.000000 1.000000
vn 0.000000 0.000000 1.000000
vn 0.000000 0.000000 1.000000
vn 0.000000 0.000000 1.000000
vn 0.000000 0.000000 1.000000
vn 0.000000 0.000000 1.000000
vn 0.000000 0.000000 1.000000
vn 0.000000 1.000000 0.000000
vn 0.000000 1.000000 0.000000
vn 0.000000 1.000000 0.000000
vn 0.000000 1.000000 0.000000
vn -1.000000 0.000000 -0.000000
vn -1.000000 0.000000 -0.000000
vn -1.000000 0.000000 -0.000000
vn -1.000000 0.000000 -0.000000
vn 0.000000 -1.000000 0.000000
vn 0.000000 -1.000000 0.000000
vn 0.000000 -1.000000 0.000000
vn 0.000000 -1.000000 0.000000
vn 1.000000 0.000000 0.000000
vn 1.000000 0.000000 0.000000
vn 1.000000 0.000000 0.000000
vn 1.000000 0.000000 0.000000
vn -0.000000 -1.000000 0.000000
vn -0.000000 -1.000000 0.000000
vn -0.000000 -1.000000 0.000000
vn -0.000000 -1.000000 0.000000
vn 1.000000 0.000000 0.000000
vn 1.000000 0.000000 0.000000
vn 1.000000 0.000000 0.000000
vn 1.000000 0.000000 0.000000
vn 0.000000 1.000000 0.000000
vn 0.000000 1.000000 0.000000
vn 0.000000 1.000000 0.000000
vn 0.000000 1.000000 0.000000
vn -1.000000 0.000000 0.000000
vn -1.000000 0.000000 0.000000
vn -1.000000 0.000000 0.000000
vn -1.000000 0.000000 0.000000
vn 1.000000 0.000000 -0.000000
vn 1.000000 0.000000 -0.000000
vn 1.000000 0.000000 -0.000000
vn 1.000000 0.000000 -0.000000
vn -0.000000 1.000000 0.000000
vn -0.000000 1.000000 0.000000
vn -0.000000 1.000000 0.000000
vn -0.000000 1.000000 0.000000
vn -1.000000 0.000000 0.000000
vn -1.000000 0.000000 0.000000
vn -1.000000 0.000000 0.000000
vn -1.000000 0.000000 0.000000
vn 0.000000 -1.000000 -0.000000
vn 0.000000 -1.000000 -0.000000
vn 0.000000 -1.000000 -0.000000
vn 0.000000 -1.000000 -0.000000
vn 0.000000 1.000000 0.000000
vn 0.000000 1.000000 0.000000
vn 0.000000 1.000000 0.000000
vn 0.000000 1.000000 0.000000
vn -1.000000 0.000000 0.000000
vn -1.000000 0.000000 0.000000
vn -1.000000 0.000000 0.000000
vn -1.000000 0.000000 0.000000
vn 0.000000 -1.000000 0.000000
vn 0.000000 -1.000000 0.000000
vn 0.000000 -1.000000 0.000000
vn 0.000000 -1.000000 0.000000
vn 1.000000 0.000000 0.000000
vn 1.000000 0.000000 0.000000
vn 1.000000 0.000000 0.000000
vn 1.000000 0.000000 0.000000
vn 0.000000 -0.999155 0.041109
vn 0.000000 -0.999155 0.041109
vn 0.000000 -0.999155 0.041109
vn 0.000000 -0.999155 0.041109
vn 1.000000 0.000000 0.000000
vn 1.000000 0.000000 0.000000
vn 1.000000 0.000000 0.000000
vn 1.000000 0.000000 0.000000
vn -0.000000 1.000000 0.000000
vn -0.000000 1.000000 0.000000
vn -0.000000 1.000000 0.000000
vn -0.000000 1.000000 0.000000
vn -1.000000 0.000000 0.000000
vn -1.000000 0.000000 0.000000
vn -1.000000 0.000000 0.000000
vn -1.000000 0.000000 0.000000
vn 0.000000 1.000000 0.000000
vn 0.000000 1.000000 0.000000
vn 0.000000 1.000000 0.000000
vn 0.000000 1.000000 0.000000
vn -1.000000 -0.000000 0.000000
vn -1.000000 -0.000000 0.000000
vn -1.000000 -0.000000 0.000000
vn -1.000000 -0.000000 0.000000
vn 0.000000 -0.999155 0.041109
vn 0.000000 -0.999155 0.041109
vn 0.000000 -0.999155 0.041109
vn 0.000000 -0.999155 0.041109
vn 1.000000 0.000000 0.000000
vn 1.000000 0.000000 0.000000
vn 1.000000 0.000000 0.000000
vn 1.000000 0.000000 0.000000
vn -0.000000 -0.999155 0.041109
vn -0.000000 -0.999155 0.041109
vn -0.000000 -0.999155 0.041109
vn -0.000000 -0.999155 0.041109
vn 1.000000 0.000000 0.000000
vn 1.000000 0.000000 0.000000
vn 1.000000 0.000000 0.000000
vn 1.000000 0.000000 0.000000
vn 0.000000 1.000000 0.000000
vn 0.000000 1.000000 0.000000
vn 0.000000 1.000000 0.000000
vn 0.000000 1.000000 0.000000
vn -1.000000 0.000000 0.000000
vn -1.000000 0.000000 0.000000
vn -1.000000 0.000000 0.000000
vn -1.000000 0.000000 0.000000
vn 0.000000 1.000000 0.000000
vn 0.000000 1.000000 0.000000
vn 0.000000 1.000000 0.000000
vn 0.000000 1.000000 0.000000
vn -1.000000 -0.000000 0.000000
vn -1.000000 -0.000000 0.000000
vn -1.000000 -0.000000 0.000000
vn -1.000000 -0.000000 0.000000
vn 0.000000 -0.999155 0.041109
vn 0.000000 -0.999155 0.041109
vn 0.000000 -0.999155 0.041109
vn 0.000000 -0.999155 0.041109
vn 1.000000 0.000000 0.000000
vn 1.000000 0.000000 0.000000
vn 1.000000 0.000000 0.000000
vn 1.000000 0.000000 0.000000
vn 0.000000 -0.109290 0.994010
vn 0.000000 -0.109290 0.994010
vn 0.000000 -0.109290 0.994010
vn 0.000000 -0.109290 0.994010
vn 0.000000 1.000000 0.000000
vn 0.000000 1.000000 0.000000
vn 0.000000 1.000000 0.000000
vn 0.000000 1.000000 0.000000
vn 0.000000 -0.109290 -0.994010
vn 0.000000 -0.109290 -0.994010
vn 0.000000 -0.109290 -0.994010
vn 0.000000 -0.109290 -0.994010
vn 0.000000 -1.000000 0.000000
vn 0.000000 -1.000000 0.000000
vn 0.000000 -1.000000 0.000000
vn 0.000000 -1.000000 0.000000
vn 0.994010 -0.109290 0.000000
vn 0.994010 -0.109290 0.000000
vn 0.994010 -0.109290 0.000000
vn 0.994010 -0.109290 0.000000
vn -0.994010 -0.109290 0.000000
vn -0.994010 -0.109290 0.000000
vn -0.994010 -0.109290 0.000000
vn -0.994010 -0.109290 0.000000
vn -0.994010 -0.109290 0.000000
vn -0.994010 -0.109290 0.000000
vn -0.994010 -0.109290 0.000000
vn -0.994010 -0.109290 0.000000
vn 0.000000 1.000000 0.000000
vn 0.000000 1.000000 0.000000
vn 0.000000 1.000000 0.000000
vn 0.000000 1.000000 0.000000
vn 0.994010 -0.109290 0.000000
vn 0.994010 -0.109290 0.000000
vn 0.994010 -0.109290 0.000000
vn 0.994010 -0.109290 0.000000
vn 0.000000 -1.000000 0.000000
vn 0.000000 -1.000000 0.000000
vn 0.000000 -1.000000 0.000000
vn 0.000000 -1.000000 0.000000
vn 0.000000 -0.109290 0.994010
vn 0.000000 -0.109290 0.994010
vn 0.000000 -0.109290 0.994010
vn 0.000000 -0.109290 0.994010
vn 0.000000 -0.109290 -0.994010
vn 0.000000 -0.109290 -0.994010
vn 0.000000 -0.109290 -0.994010
vn 0.000000 -0.109290 -0.994010
vn 0.994010 -0.109290 0.000000
vn 0.994010 -0.109290 0.000000
vn 0.994010 -0.109290 0.000000
vn 0.994010 -0.109290 0.000000
vn 0.000000 1.000000 0.000000
vn 0.000000 1.000000 0.000000
vn 0.000000 1.000000 0.000000
vn 0.000000 1.000000 0.000000
vn -0.994010 -0.109290 0.000000
vn -0.994010 -0.109290 0.000000
vn -0.994010 -0.109290 0.000000
vn -0.994010 -0.109290 0.000000
vn 0.000000 -1.000000 0.000000
vn 0.000000 -1.000000 0.000000
vn 0.000000 -1.000000 0.000000
vn 0.000000 -1.000000 0.000000
vn 0.000000 -0.109290 -0.994010
vn 0.000000 -0.109290 -0.994010
vn 0.000000 -0.109290 -0.994010
vn 0.000000 -0.109290 -0.994010
vn 0.000000 -0.109290 0.994010
vn 0.000000 -0.109290 0.994010
vn 0.000000 -0.109290 0.994010
vn 0.000000 -0.109290 0.994010
vn 0.000000 -0.109290 -0.994010
vn 0.000000 -0.109290 -0.994010
vn 0.000000 -0.109290 -0.994010
vn 0.000000 -0.109290 -0.994010
vn 0.000000 1.000000 0.000000
vn 0.000000 1.000000 0.000000
vn 0.000000 1.000000 0.000000
vn 0.000000 1.000000 0.000000
vn 0.000000 -0.109290 0.994010
vn 0.000000 -0.109290 0.994010
vn 0.000000 -0.109290 0.994010
vn 0.000000 -0.109290 0.994010
vn 0.000000 -1.000000 0.000000
vn 0.000000 -1.000000 0.000000
vn 0.000000 -1.000000 0.000000
vn 0.000000 -1.000000 0.000000
vn -0.994010 -0.109290 0.000000
vn -0.994010 -0.109290 0.000000
vn -0.994010 -0.109290 0.000000
vn -0.994010 -0.109290 0.000000
vn 0.994010 -0.109290 0.000000
vn 0.994010 -0.109290 0.000000
vn 0.994010 -0.109290 0.000000
vn 0.994010 -0.109290 0.000000
s off
g pCube7
usemtl initialShadingGroup
f 41/49/1 42/50/2 43/51/3 44/52/4
f 5/5/5 3/3/6 4/4/7 6/6/8
f 8/8/9 7/7/10 5/5/11 6/6/12
f 2/10/13 1/9/14 7/7/15 8/8/16
f 2/2/17 8/11/18 6/12/19 4/4/20
f 7/13/21 1/35/22 3/3/23 5/14/24
s 1
f 1/1/25 13/19/26 9/15/27
f 14/20/28 3/3/29 10/16/30
f 40/48/31 1/1/25 9/15/27
f 2/2/32 37/45/33 11/17/34
f 16/22/35 4/4/36 3/3/29 14/20/28
f 15/21/37 13/19/26 1/1/25 2/2/32
f 38/46/38 39/47/39 13/19/26 15/21/37
f 15/21/37 2/2/32 11/17/34
s off
f 45/53/40 46/54/41 47/55/42 48/56/43
s 1
f 4/4/36 16/22/35 12/18/44
f 20/26/45 4/4/36 12/18/44
s off
f 50/57/46 49/58/47 51/59/48 52/60/49
s 1
f 16/22/35 14/20/28 18/24/50 19/25/51
s off
f 53/61/52 54/62/53 55/63/54 56/64/55
s 1
f 3/3/29 17/23/56 10/16/30
f 25/31/57 32/39/58 2/40/32 4/4/36
f 26/32/59 31/38/60 32/39/58 25/31/57
f 26/32/59 27/33/61 30/37/62 31/38/60
f 28/34/63 29/36/64 30/37/62 27/33/61
f 3/3/29 1/35/25 29/36/64 28/34/63
f 17/23/56 3/3/29 24/30/65
f 18/24/50 17/23/56 24/30/65 23/29/66
f 19/25/51 18/24/50 23/29/66 22/28/67
f 20/26/45 19/25/51 22/28/67 21/27/68
f 4/4/36 20/26/45 21/27/68
f 25/31/57 4/4/36 21/27/68
s off
f 57/65/69 58/66/70 59/67/71 60/68/72
s 1
f 22/28/67 23/29/66 27/33/61 26/32/59
s off
f 62/69/73 61/70/74 63/71/75 64/72/76
s 1
f 24/30/65 3/3/29 28/34/63
f 33/41/77 2/40/32 32/39/58
s off
f 66/73/78 65/74/79 67/75/80 68/76/81
s 1
f 31/38/60 30/37/62 35/43/82 34/42/83
s off
f 70/77/84 69/78/85 71/79/86 72/80/87
s 1
f 29/36/64 1/35/25 36/44/88
f 33/41/77 37/45/33 2/2/32
f 34/42/83 38/46/38 37/45/33 33/41/77
f 34/42/83 35/43/82 39/47/39 38/46/38
f 36/44/88 40/48/31 39/47/39 35/43/82
f 1/35/25 40/48/31 36/44/88
s off
f 9/15/89 13/19/90 42/50/91 41/49/92
f 13/19/93 39/47/94 43/51/95 42/50/96
f 39/47/97 40/48/98 44/52/99 43/51/100
f 40/48/101 9/15/102 41/49/103 44/52/104
f 37/45/105 38/46/106 46/54/107 45/53/108
f 38/46/109 15/21/110 47/55/111 46/54/112
f 15/21/113 11/17/114 48/56/115 47/55/116
f 11/17/117 37/45/118 45/53/119 48/56/120
f 16/22/121 19/25/122 49/58/123 50/57/124
f 19/25/125 20/26/126 51/59/127 49/58/128
f 20/26/129 12/18/130 52/60/131 51/59/132
f 12/18/133 16/22/134 50/57/135 52/60/136
f 17/23/137 18/24/138 54/62/139 53/61/140
f 18/24/141 14/20/142 55/63/143 54/62/144
f 14/20/145 10/16/146 56/64/147 55/63/148
f 10/16/149 17/23/150 53/61/151 56/64/152
f 21/27/153 22/28/154 58/66/155 57/65/156
f 22/28/157 26/32/158 59/67/159 58/66/160
f 26/32/161 25/31/162 60/68/163 59/67/164
f 25/31/165 21/27/166 57/65/167 60/68/168
f 28/34/169 27/33/170 61/70/171 62/69/172
f 27/33/173 23/29/174 63/71/175 61/70/176
f 23/29/177 24/30/178 64/72/179 63/71/180
f 24/30/181 28/34/182 62/69/183 64/72/184
f 32/39/185 31/38/186 65/74/187 66/73/188
f 31/38/189 34/42/190 67/75/191 65/74/192
f 34/42/193 33/41/194 68/76/195 67/75/196
f 33/41/197 32/39/198 66/73/199 68/76/200
f 36/44/201 35/43/202 69/78/203 70/77/204
f 35/43/205 30/37/206 71/79/207 69/78/208
f 30/37/209 29/36/210 72/80/211 71/79/212
f 29/36/213 36/44/214 70/77/215 72/80/216
f 73/81/217 74/82/218 76/83/219 75/84/220
f 75/84/221 76/83/222 78/85/223 77/86/224
f 77/86/225 78/85/226 80/87/227 79/88/228
f 79/88/229 80/87/230 74/89/231 73/90/232
f 74/82/233 80/91/234 78/92/235 76/83/236
f 79/93/237 73/81/238 75/84/239 77/94/240
f 81/95/241 82/96/242 84/97/243 83/98/244
f 83/98/245 84/97/246 86/99/247 85/100/248
f 85/100/249 86/99/250 88/101/251 87/102/252
f 87/102/253 88/101/254 82/103/255 81/104/256
f 82/96/257 88/105/258 86/106/259 84/97/260
f 87/107/261 81/95/262 83/98/263 85/108/264
f 89/109/265 90/110/266 92/111/267 91/112/268
f 91/112/269 92/111/270 94/113/271 93/114/272
f 93/114/273 94/113/274 96/115/275 95/116/276
f 95/116/277 96/115/278 90/117/279 89/118/280
f 90/110/281 96/119/282 94/120/283 92/111/284
f 95/121/285 89/109/286 91/112/287 93/122/288
f 97/123/289 98/124/290 100/125/291 99/126/292
f 99/126/293 100/125/294 102/127/295 101/128/296
f 101/128/297 102/127/298 104/129/299 103/130/300
f 103/130/301 104/129/302 98/131/303 97/132/304
f 98/124/305 104/133/306 102/134/307 100/125/308
f 103/135/309 97/123/310 99/126/311 101/136/312
