# This file uses centimeters as units for non-parametric coordinates.

g default
v -6.040967 2.475000 -2.421807
v -0.604097 2.475000 -2.421807
v -0.604097 4.606781 -2.421807
v -6.040967 4.500000 -2.421807
v -6.500000 -5.000000 2.500000
v 6.500000 -5.000000 2.500000
v -6.500000 5.000000 2.500000
v 6.895992 5.231940 2.500000
v -6.500000 5.000000 -2.500000
v 6.895992 5.231940 -2.500000
v -6.500000 -5.000000 -2.500000
v 6.500000 -5.000000 -2.500000
v -6.040967 -4.500000 2.500000
v -6.040967 4.500000 2.500000
v 6.040967 -4.500000 2.500000
v 6.040967 4.606781 2.500000
v -0.604098 -4.500000 2.500000
v -0.604097 4.606781 2.500000
v 0.604097 -4.500000 2.500000
v 0.604097 4.500000 2.500000
v -6.040967 2.475000 2.500000
v -0.604097 2.475000 2.500000
v 0.604097 2.475000 2.500000
v 6.040967 2.475000 2.500000
v 6.040967 2.435531 2.500000
v 0.604097 2.227500 2.500000
v -0.604097 2.435532 2.500000
v -6.040967 2.227500 2.500000
v 6.040967 0.202500 2.500000
v 0.604097 0.202500 2.500000
v -0.604097 0.202500 2.500000
v -6.040967 0.202500 2.500000
v -6.040967 -0.022500 2.500000
v -0.604097 0.185532 2.500000
v 0.604097 -0.022500 2.500000
v 6.040967 0.185532 2.500000
v 6.040967 -2.047500 2.500000
v 0.604097 -2.047500 2.500000
v -0.604097 -2.047500 2.500000
v -6.040967 -2.047500 2.500000
v 6.040967 -2.368218 2.500000
v 0.604097 -2.475000 2.500000
v -0.604097 -2.368218 2.500000
v -6.040967 -2.475000 2.500000
v -6.040967 -4.500000 -2.421807
v -0.604097 -4.500000 -2.421807
v -0.604097 -2.368218 -2.421807
v -6.040967 -2.475000 -2.421807
v 6.040967 -2.368218 -2.421807
v 0.604097 -2.475000 -2.421807
v 0.604097 -4.500000 -2.421807
v 6.040967 -4.500000 -2.421807
v 0.604097 2.475000 -2.421807
v 0.604097 4.500000 -2.421807
v 6.040967 2.475000 -2.421807
v 6.040967 4.606781 -2.421807
v -6.040967 2.475000 -2.421807
v -0.604097 2.475000 -2.421807
v -0.604097 4.606781 -2.421807
v -6.040967 4.500000 -2.421807
v 6.040967 2.233031 -2.421807
v 0.604097 2.025000 -2.421807
v 0.604097 0.202500 -2.421807
v 6.040967 0.202500 -2.421807
v -0.604097 0.202500 -2.421807
v -6.040967 0.202500 -2.421807
v -0.604097 2.233031 -2.421807
v -6.040967 2.025000 -2.421807
v 0.604097 -0.225000 -2.421807
v 6.040967 -0.016968 -2.421807
v 0.604097 -2.047500 -2.421807
v 6.040967 -2.047500 -2.421807
v -0.604097 -2.047500 -2.421807
v -6.040967 -2.047500 -2.421807
v -0.604097 -0.016968 -2.421807
v -6.040967 -0.225000 -2.421807
v -6.327017 -6.413434 2.344595
v -5.327017 -6.413434 2.344595
v -6.482422 -5.000000 2.500000
v -5.171612 -5.000000 2.500000
v -6.482422 -5.000000 1.189189
v -5.171612 -5.000000 1.189189
v -6.327017 -6.413434 1.344595
v -5.327017 -6.413434 1.344595
v -6.327017 -6.413434 -2.344595
v -6.327017 -6.413434 -1.344595
v -6.482422 -5.000000 -2.500000
v -6.482422 -5.000000 -1.189190
v -5.171612 -5.000000 -2.500000
v -5.171612 -5.000000 -1.189190
v -5.327017 -6.413434 -2.344595
v -5.327017 -6.413434 -1.344595
v 6.344595 -6.413434 2.344595
v 6.344595 -6.413434 1.344595
v 6.500000 -5.000000 2.500000
v 6.500000 -5.000000 1.189190
v 5.189190 -5.000000 2.500000
v 5.189190 -5.000000 1.189190
v 5.344595 -6.413434 2.344595
v 5.344595 -6.413434 1.344595
v 6.344595 -6.413434 -2.344595
v 5.344595 -6.413434 -2.344595
v 6.500000 -5.000000 -2.500000
v 5.189190 -5.000000 -2.500000
v 6.500000 -5.000000 -1.189189
v 5.189190 -5.000000 -1.189189
v 6.344595 -6.413434 -1.344595
v 5.344595 -6.413434 -1.344595
vt 0.375000 0.193750
vt 0.487500 0.193750
vt 0.487500 0.250000
vt 0.375000 0.250000
vt 0.375000 0.000000
vt 0.487500 0.000000
vt 0.487500 0.056250
vt 0.375000 0.056250
vt 0.375000 0.500000
vt 0.397500 0.201125
vt 0.602500 0.201125
vt 0.625000 0.500000
vt 0.625000 0.750000
vt 0.375000 0.750000
vt 0.568750 1.000000
vt 0.431250 1.000000
vt 0.587500 0.018750
vt 0.875000 0.000000
vt 0.875000 0.250000
vt 0.125000 0.000000
vt 0.375000 0.093437
vt 0.125000 0.250000
vt 0.412500 0.018750
vt 0.487500 0.000000
vt 0.375000 0.000000
vt 0.487500 0.250000
vt 0.375000 0.250000
vt 0.375000 0.056250
vt 0.625000 0.056250
vt 0.625000 0.000000
vt 0.512500 0.250000
vt 0.512500 0.000000
vt 0.512500 0.056250
vt 0.487500 0.056250
vt 0.625000 0.056250
vt 0.512500 0.056250
vt 0.512500 0.000000
vt 0.625000 0.000000
vt 0.625000 0.250000
vt 0.625000 0.193750
vt 0.512500 0.250000
vt 0.512500 0.193750
vt 0.625000 0.193750
vt 0.625000 0.250000
vt 0.487500 0.193750
vt 0.512500 0.193750
vt 0.375000 0.193750
vt 0.625000 0.130625
vt 0.625000 0.118750
vt 0.625000 0.093437
vt 0.512500 0.130625
vt 0.512500 0.118750
vt 0.487500 0.130625
vt 0.487500 0.118750
vt 0.375000 0.130625
vt 0.375000 0.118750
vt 0.375000 0.181250
vt 0.487500 0.181250
vt 0.512500 0.181250
vt 0.625000 0.181250
vt 0.625000 0.181250
vt 0.512500 0.181250
vt 0.512500 0.130625
vt 0.625000 0.130625
vt 0.375000 0.130625
vt 0.487500 0.130625
vt 0.487500 0.181250
vt 0.375000 0.181250
vt 0.625000 0.068125
vt 0.625000 0.118750
vt 0.512500 0.118750
vt 0.512500 0.068125
vt 0.625000 0.068125
vt 0.487500 0.068125
vt 0.512500 0.068125
vt 0.375000 0.068125
vt 0.487500 0.068125
vt 0.487500 0.118750
vt 0.375000 0.118750
vt 0.375000 0.068125
vt 0.487500 0.193750
vt 0.375000 0.193750
vt 0.487500 0.250000
vt 0.375000 0.250000
vt 0.375000 0.000000
vt 0.625000 0.000000
vt 0.625000 0.250000
vt 0.375000 0.250000
vt 0.625000 0.500000
vt 0.375000 0.500000
vt 0.625000 0.750000
vt 0.375000 0.750000
vt 0.625000 1.000000
vt 0.375000 1.000000
vt 0.875000 0.000000
vt 0.875000 0.250000
vt 0.125000 0.000000
vt 0.125000 0.250000
vt 0.375000 0.000000
vt 0.625000 0.000000
vt 0.625000 0.250000
vt 0.375000 0.250000
vt 0.625000 0.500000
vt 0.375000 0.500000
vt 0.625000 0.750000
vt 0.375000 0.750000
vt 0.625000 1.000000
vt 0.375000 1.000000
vt 0.875000 0.000000
vt 0.875000 0.250000
vt 0.125000 0.000000
vt 0.125000 0.250000
vt 0.375000 0.000000
vt 0.625000 0.000000
vt 0.625000 0.250000
vt 0.375000 0.250000
vt 0.625000 0.500000
vt 0.375000 0.500000
vt 0.625000 0.750000
vt 0.375000 0.750000
vt 0.625000 1.000000
vt 0.375000 1.000000
vt 0.875000 0.000000
vt 0.875000 0.250000
vt 0.125000 0.000000
vt 0.125000 0.250000
vt 0.375000 0.000000
vt 0.625000 0.000000
vt 0.625000 0.250000
vt 0.375000 0.250000
vt 0.625000 0.500000
vt 0.375000 0.500000
vt 0.625000 0.750000
vt 0.375000 0.750000
vt 0.625000 1.000000
vt 0.375000 1.000000
vt 0.875000 0.000000
vt 0.875000 0.250000
vt 0.125000 0.000000
vt 0.125000 0.250000
vn 0.000000 0.000000 1.000000
vn 0.000000 0.000000 1.000000
vn 0.000000 0.000000 1.000000
vn 0.000000 0.000000 1.000000
vn 0.000000 0.000000 1.000000
vn 0.000000 0.000000 1.000000
vn 0.000000 0.000000 1.000000
vn 0.000000 0.000000 1.000000
vn -0.017312 0.999850 0.000000
vn -0.017312 0.999850 0.000000
vn -0.017312 0.999850 0.000000
vn -0.017312 0.999850 0.000000
vn 0.000000 0.000000 -1.000000
vn 0.000000 0.000000 -1.000000
vn 0.000000 0.000000 -1.000000
vn 0.000000 0.000000 -1.000000
vn 0.000000 -1.000000 0.000000
vn 0.000000 -1.000000 0.000000
vn 0.000000 -1.000000 0.000000
vn 0.000000 -1.000000 0.000000
vn 0.999252 -0.038673 0.000000
vn 0.999252 -0.038673 0.000000
vn 0.999252 -0.038673 0.000000
vn 0.999252 -0.038673 0.000000
vn -1.000000 0.000000 0.000000
vn -1.000000 0.000000 0.000000
vn -1.000000 0.000000 0.000000
vn -1.000000 0.000000 0.000000
vn -0.000000 0.000000 1.000000
vn 0.000000 0.000000 1.000000
vn 0.000000 0.000000 1.000000
vn 0.000000 0.000000 1.000000
vn -0.000000 0.000000 1.000000
vn 0.000000 0.000000 1.000000
vn 0.000000 0.000000 1.000000
vn 0.000000 0.000000 1.000000
vn 0.000000 0.000000 1.000000
vn 0.000000 0.000000 1.000000
vn 0.000000 0.000000 1.000000
vn 0.000000 0.000000 1.000000
vn 0.000000 0.000000 1.000000
vn 0.000000 0.000000 1.000000
vn 0.000000 0.000000 1.000000
vn 0.000000 0.000000 1.000000
vn 0.000000 0.000000 1.000000
vn 0.000000 0.000000 1.000000
vn 0.000000 0.000000 1.000000
vn 0.000000 0.000000 1.000000
vn 0.000000 0.000000 1.000000
vn -0.000000 0.000000 1.000000
vn -0.000000 0.000000 1.000000
vn -0.000000 0.000000 1.000000
vn -0.000000 0.000000 1.000000
vn 0.000000 0.000000 1.000000
vn 0.000000 0.000000 1.000000
vn 0.000000 0.000000 1.000000
vn 0.000000 0.000000 1.000000
vn 0.000000 0.000000 1.000000
vn 0.000000 0.000000 1.000000
vn -0.000000 0.000000 1.000000
vn 0.000000 0.000000 1.000000
vn -0.000000 0.000000 1.000000
vn -0.000000 0.000000 1.000000
vn -0.000000 0.000000 1.000000
vn 0.000001 0.000000 1.000000
vn 0.000000 0.000000 1.000000
vn 0.000000 0.000000 1.000000
vn -0.000000 0.000000 1.000000
vn 0.000000 0.000000 1.000000
vn 0.000000 0.000000 1.000000
vn 0.000000 0.000000 1.000000
vn 0.000000 0.000000 1.000000
vn 0.000000 0.000000 1.000000
vn 0.000000 0.000000 1.000000
vn 0.000000 0.000000 1.000000
vn 0.000000 0.000000 1.000000
vn 0.000000 0.000000 1.000000
vn 0.000000 0.000000 1.000000
vn 0.000000 0.000000 1.000000
vn 0.000000 0.000000 1.000000
vn 0.000000 0.000000 1.000000
vn -0.000000 0.000000 1.000000
vn -0.000000 0.000000 1.000000
vn 0.000000 0.000000 1.000000
vn 0.000000 0.000000 1.000000
vn 0.000000 0.000000 1.000000
vn 0.000000 0.000000 1.000000
vn 0.000000 0.000000 1.000000
vn 0.000000 1.000000 0.000000
vn 0.000000 1.000000 0.000000
vn 0.000000 1.000000 0.000000
vn 0.000000 1.000000 0.000000
vn -1.000000 0.000000 -0.000000
vn -1.000000 0.000000 -0.000000
vn -1.000000 0.000000 -0.000000
vn -1.000000 0.000000 -0.000000
vn 0.019636 -0.999807 0.000000
vn 0.019636 -0.999807 0.000000
vn 0.019636 -0.999807 0.000000
vn 0.019636 -0.999807 0.000000
vn 1.000000 0.000000 0.000000
vn 1.000000 0.000000 0.000000
vn 1.000000 0.000000 0.000000
vn 1.000000 0.000000 0.000000
vn 0.019636 -0.999807 -0.000000
vn 0.019636 -0.999807 -0.000000
vn 0.019636 -0.999807 -0.000000
vn 0.019636 -0.999807 -0.000000
vn 1.000000 0.000000 0.000000
vn 1.000000 0.000000 0.000000
vn 1.000000 0.000000 0.000000
vn 1.000000 0.000000 0.000000
vn 0.000000 1.000000 0.000000
vn 0.000000 1.000000 0.000000
vn 0.000000 1.000000 0.000000
vn 0.000000 1.000000 0.000000
vn -1.000000 0.000000 0.000000
vn -1.000000 0.000000 0.000000
vn -1.000000 0.000000 0.000000
vn -1.000000 0.000000 0.000000
vn 1.000000 0.000000 -0.000000
vn 1.000000 0.000000 -0.000000
vn 1.000000 0.000000 -0.000000
vn 1.000000 0.000000 -0.000000
vn -0.000000 1.000000 0.000000
vn -0.000000 1.000000 0.000000
vn -0.000000 1.000000 0.000000
vn -0.000000 1.000000 0.000000
vn -1.000000 0.000000 0.000000
vn -1.000000 0.000000 0.000000
vn -1.000000 0.000000 0.000000
vn -1.000000 0.000000 0.000000
vn 0.019637 -0.999807 -0.000000
vn 0.019637 -0.999807 -0.000000
vn 0.019637 -0.999807 -0.000000
vn 0.019637 -0.999807 -0.000000
vn 0.000000 1.000000 0.000000
vn 0.000000 1.000000 0.000000
vn 0.000000 1.000000 0.000000
vn 0.000000 1.000000 0.000000
vn -1.000000 0.000000 0.000000
vn -1.000000 0.000000 0.000000
vn -1.000000 0.000000 0.000000
vn -1.000000 0.000000 0.000000
vn 0.019636 -0.999807 0.000000
vn 0.019636 -0.999807 0.000000
vn 0.019636 -0.999807 0.000000
vn 0.019636 -0.999807 0.000000
vn 1.000000 0.000000 0.000000
vn 1.000000 0.000000 0.000000
vn 1.000000 0.000000 0.000000
vn 1.000000 0.000000 0.000000
vn 0.038203 -0.998425 0.041079
vn 0.038203 -0.998425 0.041079
vn 0.038203 -0.998425 0.041079
vn 0.038203 -0.998425 0.041079
vn 1.000000 0.000000 0.000000
vn 1.000000 0.000000 0.000000
vn 1.000000 0.000000 0.000000
vn 1.000000 0.000000 0.000000
vn -0.000000 1.000000 0.000000
vn -0.000000 1.000000 0.000000
vn -0.000000 1.000000 0.000000
vn -0.000000 1.000000 0.000000
vn -1.000000 0.000000 0.000000
vn -1.000000 0.000000 0.000000
vn -1.000000 0.000000 0.000000
vn -1.000000 0.000000 0.000000
vn 0.000000 1.000000 0.000000
vn 0.000000 1.000000 0.000000
vn 0.000000 1.000000 0.000000
vn 0.000000 1.000000 0.000000
vn -1.000000 -0.000000 0.000000
vn -1.000000 -0.000000 0.000000
vn -1.000000 -0.000000 0.000000
vn -1.000000 -0.000000 0.000000
vn 0.038203 -0.998425 0.041079
vn 0.038203 -0.998425 0.041079
vn 0.038203 -0.998425 0.041079
vn 0.038203 -0.998425 0.041079
vn 1.000000 0.000000 0.000000
vn 1.000000 0.000000 0.000000
vn 1.000000 0.000000 0.000000
vn 1.000000 0.000000 0.000000
vn 0.038203 -0.998425 0.041079
vn 0.038203 -0.998425 0.041079
vn 0.038203 -0.998425 0.041079
vn 0.038203 -0.998425 0.041079
vn 1.000000 0.000000 0.000000
vn 1.000000 0.000000 0.000000
vn 1.000000 0.000000 0.000000
vn 1.000000 0.000000 0.000000
vn 0.000000 1.000000 0.000000
vn 0.000000 1.000000 0.000000
vn 0.000000 1.000000 0.000000
vn 0.000000 1.000000 0.000000
vn -1.000000 0.000000 0.000000
vn -1.000000 0.000000 0.000000
vn -1.000000 0.000000 0.000000
vn -1.000000 0.000000 0.000000
vn 0.000000 1.000000 0.000000
vn 0.000000 1.000000 0.000000
vn 0.000000 1.000000 0.000000
vn 0.000000 1.000000 0.000000
vn -1.000000 -0.000000 0.000000
vn -1.000000 -0.000000 0.000000
vn -1.000000 -0.000000 0.000000
vn -1.000000 -0.000000 0.000000
vn 0.038203 -0.998425 0.041079
vn 0.038203 -0.998425 0.041079
vn 0.038203 -0.998425 0.041079
vn 0.038203 -0.998425 0.041079
vn 1.000000 0.000000 0.000000
vn 1.000000 0.000000 0.000000
vn 1.000000 0.000000 0.000000
vn 1.000000 0.000000 0.000000
vn 0.000000 -0.109290 0.994010
vn 0.000000 -0.109290 0.994010
vn 0.000000 -0.109290 0.994010
vn 0.000000 -0.109290 0.994010
vn 0.000000 1.000000 0.000000
vn 0.000000 1.000000 0.000000
vn 0.000000 1.000000 0.000000
vn 0.000000 1.000000 0.000000
vn 0.000000 -0.109290 -0.994010
vn 0.000000 -0.109290 -0.994010
vn 0.000000 -0.109290 -0.994010
vn 0.000000 -0.109290 -0.994010
vn 0.000000 -1.000000 0.000000
vn 0.000000 -1.000000 0.000000
vn 0.000000 -1.000000 0.000000
vn 0.000000 -1.000000 0.000000
vn 0.994010 -0.109290 0.000000
vn 0.994010 -0.109290 0.000000
vn 0.994010 -0.109290 0.000000
vn 0.994010 -0.109290 0.000000
vn -0.994010 -0.109290 0.000000
vn -0.994010 -0.109290 0.000000
vn -0.994010 -0.109290 0.000000
vn -0.994010 -0.109290 0.000000
vn -0.994010 -0.109290 0.000000
vn -0.994010 -0.109290 0.000000
vn -0.994010 -0.109290 0.000000
vn -0.994010 -0.109290 0.000000
vn 0.000000 1.000000 0.000000
vn 0.000000 1.000000 0.000000
vn 0.000000 1.000000 0.000000
vn 0.000000 1.000000 0.000000
vn 0.994010 -0.109290 0.000000
vn 0.994010 -0.109290 0.000000
vn 0.994010 -0.109290 0.000000
vn 0.994010 -0.109290 0.000000
vn 0.000000 -1.000000 0.000000
vn 0.000000 -1.000000 0.000000
vn 0.000000 -1.000000 0.000000
vn 0.000000 -1.000000 0.000000
vn 0.000000 -0.109290 0.994010
vn 0.000000 -0.109290 0.994010
vn 0.000000 -0.109290 0.994010
vn 0.000000 -0.109290 0.994010
vn 0.000000 -0.109290 -0.994010
vn 0.000000 -0.109290 -0.994010
vn 0.000000 -0.109290 -0.994010
vn 0.000000 -0.109290 -0.994010
vn 0.994010 -0.109290 0.000000
vn 0.994010 -0.109290 0.000000
vn 0.994010 -0.109290 0.000000
vn 0.994010 -0.109290 0.000000
vn 0.000000 1.000000 0.000000
vn 0.000000 1.000000 0.000000
vn 0.000000 1.000000 0.000000
vn 0.000000 1.000000 0.000000
vn -0.994010 -0.109290 0.000000
vn -0.994010 -0.109290 0.000000
vn -0.994010 -0.109290 0.000000
vn -0.994010 -0.109290 0.000000
vn 0.000000 -1.000000 0.000000
vn 0.000000 -1.000000 0.000000
vn 0.000000 -1.000000 0.000000
vn 0.000000 -1.000000 0.000000
vn 0.000000 -0.109290 -0.994010
vn 0.000000 -0.109290 -0.994010
vn 0.000000 -0.109290 -0.994010
vn 0.000000 -0.109290 -0.994010
vn 0.000000 -0.109290 0.994010
vn 0.000000 -0.109290 0.994010
vn 0.000000 -0.109290 0.994010
vn 0.000000 -0.109290 0.994010
vn 0.000000 -0.109290 -0.994010
vn 0.000000 -0.109290 -0.994010
vn 0.000000 -0.109290 -0.994010
vn 0.000000 -0.109290 -0.994010
vn 0.000000 1.000000 0.000000
vn 0.000000 1.000000 0.000000
vn 0.000000 1.000000 0.000000
vn 0.000000 1.000000 0.000000
vn 0.000000 -0.109290 0.994010
vn 0.000000 -0.109290 0.994010
vn 0.000000 -0.109290 0.994010
vn 0.000000 -0.109290 0.994010
vn 0.000000 -1.000000 0.000000
vn 0.000000 -1.000000 0.000000
vn 0.000000 -1.000000 0.000000
vn 0.000000 -1.000000 0.000000
vn -0.994010 -0.109290 0.000000
vn -0.994010 -0.109290 0.000000
vn -0.994010 -0.109290 0.000000
vn -0.994010 -0.109290 0.000000
vn 0.994010 -0.109290 0.000000
vn 0.994010 -0.109290 0.000000
vn 0.994010 -0.109290 0.000000
vn 0.994010 -0.109290 0.000000
s off
g polySurface28
f 1/1/1 2/2/2 3/3/3 4/4/4
f 45/5/5 46/6/6 47/7/7 48/8/8
f 9/9/9 7/10/10 8/11/11 10/12/12
f 12/13/13 11/14/14 9/9/15 10/12/16
f 6/15/17 5/16/18 11/14/19 12/13/20
f 6/17/21 12/18/22 10/19/23 8/11/24
f 11/20/25 5/21/26 7/10/27 9/22/28
s 1
f 5/23/29 17/24/30 13/25/31
f 18/26/32 7/10/33 14/27/34
f 44/28/35 5/23/29 13/25/31
f 6/17/36 41/29/37 15/30/38
f 20/31/39 8/11/40 7/10/33 18/26/32
f 19/32/41 17/24/30 5/23/29 6/17/36
f 42/33/42 43/34/43 17/24/30 19/32/41
f 19/32/41 6/17/36 15/30/38
s off
f 49/35/44 50/36/45 51/37/46 52/38/47
s 1
f 8/11/40 20/31/39 16/39/48
f 24/40/49 8/11/40 16/39/48
s off
f 54/41/50 53/42/51 55/43/52 56/44/53
s 1
f 20/31/39 18/26/32 22/45/54 23/46/55
f 7/10/33 21/47/56 14/27/34
f 29/48/57 36/49/58 6/50/36 8/11/40
f 30/51/59 35/52/60 36/49/58 29/48/57
f 30/51/59 31/53/61 34/54/62 35/52/60
f 32/55/63 33/56/64 34/54/62 31/53/61
f 7/10/33 5/21/29 33/56/64 32/55/63
f 21/47/56 7/10/33 28/57/65
f 22/45/54 21/47/56 28/57/65 27/58/66
f 23/46/55 22/45/54 27/58/66 26/59/67
f 24/40/49 23/46/55 26/59/67 25/60/68
f 8/11/40 24/40/49 25/60/68
f 29/48/57 8/11/40 25/60/68
s off
f 61/61/69 62/62/70 63/63/71 64/64/72
s 1
f 26/59/67 27/58/66 31/53/61 30/51/59
s off
f 66/65/73 65/66/74 67/67/75 68/68/76
s 1
f 28/57/65 7/10/33 32/55/63
f 37/69/77 6/50/36 36/49/58
s off
f 70/70/78 69/71/79 71/72/80 72/73/81
s 1
f 35/52/60 34/54/62 39/74/82 38/75/83
s off
f 74/76/84 73/77/85 75/78/86 76/79/87
s 1
f 33/56/64 5/21/29 40/80/88
f 37/69/77 41/29/37 6/17/36
f 38/75/83 42/33/42 41/29/37 37/69/77
f 38/75/83 39/74/82 43/34/43 42/33/42
f 40/80/88 44/28/35 43/34/43 39/74/82
f 5/21/29 44/28/35 40/80/88
s off
f 13/25/89 17/24/90 46/6/91 45/5/92
f 17/24/93 43/34/94 47/7/95 46/6/96
f 43/34/97 44/28/98 48/8/99 47/7/100
f 44/28/101 13/25/102 45/5/103 48/8/104
f 41/29/105 42/33/106 50/36/107 49/35/108
f 42/33/109 19/32/110 51/37/111 50/36/112
f 19/32/113 15/30/114 52/38/115 51/37/116
f 15/30/117 41/29/118 49/35/119 52/38/120
f 20/31/121 23/46/122 53/42/123 54/41/124
f 23/46/125 24/40/126 55/43/127 53/42/128
f 24/40/129 16/39/130 56/44/131 55/43/132
f 16/39/133 20/31/134 54/41/135 56/44/136
f 21/47/137 22/45/138 58/81/139 57/82/140
f 22/45/141 18/26/142 59/83/143 58/81/144
f 18/26/145 14/27/146 60/84/147 59/83/148
f 14/27/149 21/47/150 57/82/151 60/84/152
f 25/60/153 26/59/154 62/62/155 61/61/156
f 26/59/157 30/51/158 63/63/159 62/62/160
f 30/51/161 29/48/162 64/64/163 63/63/164
f 29/48/165 25/60/166 61/61/167 64/64/168
f 32/55/169 31/53/170 65/66/171 66/65/172
f 31/53/173 27/58/174 67/67/175 65/66/176
f 27/58/177 28/57/178 68/68/179 67/67/180
f 28/57/181 32/55/182 66/65/183 68/68/184
f 36/49/185 35/52/186 69/71/187 70/70/188
f 35/52/189 38/75/190 71/72/191 69/71/192
f 38/75/193 37/69/194 72/73/195 71/72/196
f 37/69/197 36/49/198 70/70/199 72/73/200
f 40/80/201 39/74/202 73/77/203 74/76/204
f 39/74/205 34/54/206 75/78/207 73/77/208
f 34/54/209 33/56/210 76/79/211 75/78/212
f 33/56/213 40/80/214 74/76/215 76/79/216
f 77/85/217 78/86/218 80/87/219 79/88/220
f 79/88/221 80/87/222 82/89/223 81/90/224
f 81/90/225 82/89/226 84/91/227 83/92/228
f 83/92/229 84/91/230 78/93/231 77/94/232
f 78/86/233 84/95/234 82/96/235 80/87/236
f 83/97/237 77/85/238 79/88/239 81/98/240
f 85/99/241 86/100/242 88/101/243 87/102/244
f 87/102/245 88/101/246 90/103/247 89/104/248
f 89/104/249 90/103/250 92/105/251 91/106/252
f 91/106/253 92/105/254 86/107/255 85/108/256
f 86/100/257 92/109/258 90/110/259 88/101/260
f 91/111/261 85/99/262 87/102/263 89/112/264
f 93/113/265 94/114/266 96/115/267 95/116/268
f 95/116/269 96/115/270 98/117/271 97/118/272
f 97/118/273 98/117/274 100/119/275 99/120/276
f 99/120/277 100/119/278 94/121/279 93/122/280
f 94/114/281 100/123/282 98/124/283 96/115/284
f 99/125/285 93/113/286 95/116/287 97/126/288
f 101/127/289 102/128/290 104/129/291 103/130/292
f 103/130/293 104/129/294 106/131/295 105/132/296
f 105/132/297 106/131/298 108/133/299 107/134/300
f 107/134/301 108/133/302 102/135/303 101/136/304
f 102/128/305 108/137/306 106/138/307 104/129/308
f 107/139/309 101/127/310 103/130/311 105/140/312
g default
v 0.604097 -4.500000 3.372506
v 6.040967 -4.500000 3.372506
v 6.040967 -2.368218 3.372506
v 0.604097 -2.475000 3.372506
v 0.604097 -4.500000 7.728856
v 6.040967 -4.500000 7.728856
v 6.040967 -2.368218 7.728856
v 0.604097 -2.475000 7.728856
v 0.694711 -2.475000 3.477443
v 5.950353 -2.368218 3.477443
v 0.694711 -2.475000 7.635355
v 5.950353 -2.368218 7.635355
v 0.694711 -4.377779 3.477443
v 5.950353 -4.377779 3.477443
v 0.694711 -4.377779 7.635355
v 5.950353 -4.377779 7.635355
v 2.865294 -3.635667 7.834100
v 3.640108 -3.635667 7.834100
v 2.865294 -3.287313 7.834100
v 3.640108 -3.346744 7.834100
v 2.865294 -3.287313 7.707305
v 3.640108 -3.346744 7.707305
v 2.865294 -3.635667 7.707305
v 3.640108 -3.635667 7.707305
vt 0.487500 0.193750
vt 0.487500 0.250000
vt 0.375000 0.250000
vt 0.375000 0.193750
vt 0.375000 0.193750
vt 0.375000 0.250000
vt 0.487500 0.250000
vt 0.487500 0.193750
vt 0.375000 0.193750
vt 0.487500 0.193750
vt 0.487500 0.250000
vt 0.487500 0.250000
vt 0.375000 0.250000
vt 0.375000 0.250000
vt 0.487500 0.250000
vt 0.375000 0.250000
vt 0.375000 0.250000
vt 0.487500 0.250000
vt 0.375000 0.250000
vt 0.487500 0.250000
vt 0.375000 0.000000
vt 0.625000 0.000000
vt 0.625000 0.250000
vt 0.375000 0.250000
vt 0.625000 0.500000
vt 0.375000 0.500000
vt 0.625000 0.750000
vt 0.375000 0.750000
vt 0.625000 1.000000
vt 0.375000 1.000000
vt 0.875000 0.000000
vt 0.875000 0.250000
vt 0.125000 0.000000
vt 0.125000 0.250000
vn 0.000000 0.000000 1.000000
vn 0.000000 0.000000 1.000000
vn 0.000000 0.000000 1.000000
vn 0.000000 0.000000 1.000000
vn 0.000000 0.000000 -1.000000
vn 0.000000 0.000000 -1.000000
vn 0.000000 0.000000 -1.000000
vn 0.000000 0.000000 -1.000000
vn 0.000000 -1.000000 0.000000
vn 0.000000 -1.000000 0.000000
vn 0.000000 -1.000000 0.000000
vn 0.000000 -1.000000 0.000000
vn 1.000000 0.000000 0.000000
vn 1.000000 0.000000 0.000000
vn 1.000000 0.000000 0.000000
vn 1.000000 0.000000 0.000000
vn 0.000000 1.000000 0.000000
vn 0.000000 1.000000 0.000000
vn 0.000000 1.000000 0.000000
vn 0.000000 1.000000 0.000000
vn -1.000000 0.000000 0.000000
vn -1.000000 0.000000 0.000000
vn -1.000000 0.000000 0.000000
vn -1.000000 0.000000 0.000000
vn -0.012718 0.999919 0.000001
vn -0.012718 0.999919 0.000001
vn -0.011533 0.999934 0.000001
vn -0.011533 0.999934 0.000001
vn -0.011469 0.999934 -0.000001
vn -0.011207 0.999937 -0.000001
vn -0.011469 0.999934 -0.000001
vn -0.011207 0.999937 -0.000001
vn 0.000000 0.000000 1.000000
vn 0.000000 0.000000 1.000000
vn 0.000000 0.000000 1.000000
vn 0.000000 0.000000 1.000000
vn 1.000000 0.000000 0.000000
vn 1.000000 0.000000 0.000000
vn 1.000000 0.000000 0.000000
vn 1.000000 0.000000 0.000000
vn 0.000000 0.000000 -1.000000
vn 0.000000 0.000000 -1.000000
vn 0.000000 0.000000 -1.000000
vn 0.000000 0.000000 -1.000000
vn -1.000000 0.000000 0.000000
vn -1.000000 0.000000 0.000000
vn -1.000000 0.000000 0.000000
vn -1.000000 0.000000 0.000000
vn 0.000000 0.000000 1.000000
vn 0.000000 0.000000 1.000000
vn 0.000000 0.000000 1.000000
vn 0.000000 0.000000 1.000000
vn 0.076479 0.997071 0.000000
vn 0.076479 0.997071 0.000000
vn 0.076479 0.997071 0.000000
vn 0.076479 0.997071 0.000000
vn -0.000001 0.000000 -1.000000
vn -0.000001 0.000000 -1.000000
vn -0.000001 0.000000 -1.000000
vn -0.000001 0.000000 -1.000000
vn 0.000000 -1.000000 0.000000
vn 0.000000 -1.000000 0.000000
vn 0.000000 -1.000000 0.000000
vn 0.000000 -1.000000 0.000000
vn 1.000000 0.000000 0.000000
vn 1.000000 0.000000 0.000000
vn 1.000000 0.000000 0.000000
vn 1.000000 0.000000 0.000000
vn -1.000000 0.000000 0.000000
vn -1.000000 0.000000 0.000000
vn -1.000000 0.000000 0.000000
vn -1.000000 0.000000 0.000000
s off
g polySurface27
f 114/141/313 115/142/314 116/143/315 113/144/316
f 109/145/317 112/146/318 111/147/319 110/148/320
f 109/149/321 110/150/322 114/141/323 113/144/324
f 110/150/325 111/151/326 115/142/327 114/141/328
f 122/152/329 121/153/330 123/154/331 124/155/332
f 112/156/333 109/149/334 113/144/335 116/143/336
s 1
f 111/151/337 112/156/338 117/157/339 118/158/340
f 112/156/338 116/143/341 119/159/342 117/157/339
f 116/143/341 115/142/343 120/160/344 119/159/342
f 115/142/343 111/151/337 118/158/340 120/160/344
s off
f 118/158/345 117/157/346 121/153/347 122/152/348
f 117/157/349 119/159/350 123/154/351 121/153/352
f 119/159/353 120/160/354 124/155/355 123/154/356
f 120/160/357 118/158/358 122/152/359 124/155/360
f 125/161/361 126/162/362 128/163/363 127/164/364
f 127/164/365 128/163/366 130/165/367 129/166/368
f 129/166/369 130/165/370 132/167/371 131/168/372
f 131/168/373 132/167/374 126/169/375 125/170/376
f 126/162/377 132/171/378 130/172/379 128/163/380
f 131/173/381 125/161/382 127/164/383 129/174/384
