# This file uses meters as units for non-parametric coordinates.

mtllib wall_basic_1.mtl
g default
v -7.000000 8.750000 0.525000
v 7.000000 8.750000 0.525000
v -7.000000 8.750000 -0.525000
v 7.000000 8.750000 -0.525000
v -7.000000 -0.000000 -0.525000
v 7.000000 -0.000000 -0.525000
v -7.000000 0.000000 0.525000
v 7.000000 0.000000 0.525000
v -7.000000 0.291422 0.525000
v -7.000000 0.291422 -0.525000
v 7.000000 0.291422 -0.525000
v 7.000000 0.291422 0.525000
v -7.000000 0.000000 0.700000
v 7.000000 0.000000 0.700000
v 7.000000 0.291422 0.700000
v -7.000000 0.291422 0.700000
v -7.000000 8.570493 0.525000
v -7.000000 8.570493 -0.525000
v 7.000000 8.570493 -0.525000
v 7.000000 8.570493 0.525000
v 7.000000 8.750000 0.649606
v -7.000000 8.750000 0.649606
v 7.000000 8.632790 0.649606
v 7.000000 8.570493 0.587309
v -7.000000 8.632790 0.649606
v -7.000000 8.570493 0.587309
vt 0.699812 0.493934
vt 0.082705 0.494735
vt 0.082646 0.448455
vt 0.699754 0.447648
vt 0.699285 0.074819
vt 0.082178 0.075589
vt 0.082163 0.062744
vt 0.699270 0.061974
vt 0.082105 0.016465
vt 0.699213 0.015687
vt 0.855927 0.918494
vt 0.850075 0.111296
vt 0.866878 0.111138
vt 0.872729 0.918337
vt 0.035894 0.075651
vt 0.035878 0.062806
vt 0.745552 0.061916
vt 0.745566 0.074760
vt 0.746034 0.439695
vt 0.699748 0.439742
vt 0.082639 0.440535
vt 0.036357 0.440582
vt 0.011381 0.510798
vt 0.818602 0.510798
vt 0.818602 0.988158
vt 0.011380 0.988158
vt 0.845830 0.918568
vt 0.839994 0.111369
vt 0.849936 0.101224
vt 0.866737 0.101030
vt 0.876975 0.111064
vt 0.882811 0.918263
vt 0.872869 0.928408
vt 0.856067 0.928601
vt 0.746039 0.447610
vt 0.036362 0.448493
vt 0.941541 0.092480
vt 0.941389 0.899700
vt 0.934644 0.899699
vt 0.934771 0.092479
vt 0.950223 0.092487
vt 0.950050 0.899707
vt 0.946459 0.899702
vt 0.946629 0.092480
vt 0.950026 0.910059
vt 0.942841 0.910042
vt 0.942857 0.903284
vt 0.927467 0.899698
vt 0.927579 0.092478
vt 0.950267 0.082140
vt 0.943054 0.088868
vt 0.943082 0.082110
vn 0.000000 1.000000 -0.000000
vn 0.000000 1.000000 -0.000000
vn 0.000000 1.000000 -0.000000
vn 0.000000 1.000000 -0.000000
vn 0.000000 -0.000000 -1.000000
vn 0.000000 -0.000000 -1.000000
vn 0.000000 -0.000000 -1.000000
vn 0.000000 -0.000000 -1.000000
vn 0.000000 -1.000000 0.000000
vn 0.000000 -1.000000 0.000000
vn 0.000000 -1.000000 0.000000
vn 0.000000 -1.000000 0.000000
vn 0.000000 0.000000 1.000000
vn 0.000000 0.000000 1.000000
vn 0.000000 0.000000 1.000000
vn 0.000000 0.000000 1.000000
vn 1.000000 0.000000 0.000000
vn 1.000000 0.000000 0.000000
vn 1.000000 0.000000 0.000000
vn 1.000000 0.000000 0.000000
vn -1.000000 0.000000 -0.000000
vn -1.000000 0.000000 -0.000000
vn -1.000000 0.000000 -0.000000
vn -1.000000 0.000000 -0.000000
vn -1.000000 0.000000 -0.000000
vn -1.000000 0.000000 -0.000000
vn -1.000000 0.000000 -0.000000
vn -1.000000 0.000000 -0.000000
vn 0.000000 -0.000000 -1.000000
vn 0.000000 -0.000000 -1.000000
vn 0.000000 -0.000000 -1.000000
vn 0.000000 -0.000000 -1.000000
vn 1.000000 0.000000 0.000000
vn 1.000000 0.000000 0.000000
vn 1.000000 0.000000 0.000000
vn 1.000000 0.000000 0.000000
vn 0.000000 0.000000 1.000000
vn 0.000000 0.000000 1.000000
vn 0.000000 0.000000 1.000000
vn 0.000000 0.000000 1.000000
vn 0.000000 -1.000000 0.000000
vn 0.000000 -1.000000 0.000000
vn 0.000000 -1.000000 0.000000
vn 0.000000 -1.000000 0.000000
vn 1.000000 0.000000 0.000000
vn 1.000000 0.000000 0.000000
vn 1.000000 0.000000 0.000000
vn 1.000000 0.000000 0.000000
vn 0.000000 1.000000 -0.000000
vn 0.000000 1.000000 -0.000000
vn 0.000000 1.000000 -0.000000
vn 0.000000 1.000000 -0.000000
vn -1.000000 0.000000 -0.000000
vn -1.000000 0.000000 -0.000000
vn -1.000000 0.000000 -0.000000
vn -1.000000 0.000000 -0.000000
vn -1.000000 0.000000 -0.000000
vn -1.000000 0.000000 -0.000000
vn -1.000000 0.000000 -0.000000
vn -1.000000 0.000000 -0.000000
vn 0.000000 -0.000000 -1.000000
vn 0.000000 -0.000000 -1.000000
vn 0.000000 -0.000000 -1.000000
vn 0.000000 -0.000000 -1.000000
vn 1.000000 0.000000 0.000000
vn 1.000000 0.000000 0.000000
vn 1.000000 0.000000 0.000000
vn 1.000000 0.000000 0.000000
vn 0.000000 0.000000 1.000000
vn 0.000000 0.000000 1.000000
vn 0.000000 0.000000 1.000000
vn 0.000000 0.000000 1.000000
vn 0.000000 -1.000000 0.000000
vn 0.000000 -1.000000 0.000000
vn 0.000000 -1.000000 0.000000
vn 0.000000 -1.000000 0.000000
vn 1.000000 0.000000 0.000000
vn 1.000000 0.000000 0.000000
vn 1.000000 0.000000 0.000000
vn 1.000000 0.000000 0.000000
vn 1.000000 0.000000 0.000000
vn 0.000000 1.000000 -0.000000
vn 0.000000 1.000000 -0.000000
vn 0.000000 1.000000 -0.000000
vn 0.000000 1.000000 -0.000000
vn -1.000000 0.000000 -0.000000
vn -1.000000 0.000000 -0.000000
vn -1.000000 0.000000 -0.000000
vn -1.000000 0.000000 -0.000000
vn -1.000000 0.000000 -0.000000
vn 0.000000 -0.707091 0.707122
vn 0.000000 -0.707091 0.707122
vn 0.000000 -0.707091 0.707122
vn 0.000000 -0.707091 0.707122
s off
g wall_basic_2:wall_basic_1
usemtl initialShadingGroup
f 1/1/1 2/2/2 4/3/3 3/4/4
f 10/5/5 11/6/6 6/7/7 5/8/8
f 5/8/9 6/7/10 8/9/11 7/10/12
f 13/11/13 14/12/14 15/13/15 16/14/16
f 12/15/17 8/16/18 6/7/19 11/6/20
f 7/17/21 9/18/22 10/5/23 5/8/24
f 9/18/25 17/19/26 18/20/27 10/5/28
f 18/20/29 19/21/30 11/6/31 10/5/32
f 20/22/33 12/15/34 11/6/35 19/21/36
f 9/23/37 12/24/38 20/25/39 17/26/40
f 7/27/41 8/28/42 14/12/43 13/11/44
f 8/29/45 12/30/46 15/13/47 14/12/48
f 12/31/49 9/32/50 16/14/51 15/13/52
f 9/33/53 7/34/54 13/11/55 16/14/56
f 17/19/57 1/35/58 3/4/59 18/20/60
f 3/4/61 4/3/62 19/21/63 18/20/64
f 2/36/65 20/22/66 19/21/67 4/3/68
f 25/37/69 23/38/70 21/39/71 22/40/72
f 17/41/73 20/42/74 24/43/75 26/44/76
f 20/42/77 2/45/78 21/46/79 23/47/80 24/43/81
f 2/48/82 1/49/83 22/40/84 21/39/85
f 1/50/86 17/41/87 26/44/88 25/51/89 22/52/90
f 24/43/91 23/38/92 25/37/93 26/44/94
