# This file uses meters as units for non-parametric coordinates.

mtllib wall_corner_1.mtl
g default
v -0.525000 8.750257 0.525000
v 0.525000 8.750257 0.525000
v -0.525000 8.750257 -0.525000
v 0.525000 8.750256 -0.525000
v -0.525000 0.000256 -0.525000
v 0.525000 0.000256 -0.525000
v -0.525000 0.000256 0.525000
v 0.525000 0.000257 0.525000
v -0.525000 0.294504 0.525000
v -0.525000 0.294504 -0.525000
v 0.525000 0.294504 -0.525000
v 0.525000 0.294504 0.525000
v -0.525000 0.000257 4.025000
v 0.525000 0.000257 4.025000
v 0.525000 0.294504 4.025000
v -0.525000 0.294504 4.025000
v 0.525000 8.750257 4.025000
v -0.525000 8.750257 4.025000
v -4.024999 0.000256 0.525000
v -4.024999 0.294504 0.525000
v -4.024999 0.294504 -0.525000
v -4.024999 0.000256 -0.525000
v -4.024999 8.750257 0.525000
v -4.024999 8.750257 -0.525000
v -0.700000 0.000257 0.700000
v -0.700000 0.294504 0.700000
v -0.700000 0.000257 4.025000
v -0.700000 0.294504 4.025000
v -0.700000 0.294505 0.700000
v -4.024999 0.294505 0.700000
v -4.024999 0.000257 0.700000
v -0.525000 8.571437 4.025000
v -0.525000 8.571437 0.525000
v -4.024999 8.571437 0.525000
v -4.024999 8.571437 -0.525000
v -0.525000 8.571437 -0.525000
v 0.525000 8.571436 -0.525000
v 0.525000 8.571437 0.525000
v 0.525000 8.571437 4.025000
v -0.650095 8.750257 0.651000
v -0.651000 8.750257 4.025000
v -4.024999 8.750257 0.651000
v -0.651000 8.634432 0.651000
v -0.588006 8.571437 0.588006
v -0.651000 8.634432 4.025000
v -0.588006 8.571437 4.025000
v -4.024999 8.634432 0.651000
v -4.024999 8.571437 0.588006
vt 0.476635 0.974796
vt 0.411146 0.913549
vt 0.475521 0.877269
vt 0.540707 0.912069
vt 0.540804 0.266474
vt 0.468714 0.279387
vt 0.468647 0.273516
vt 0.532792 0.237793
vt 0.403703 0.239267
vt 0.467537 0.176358
vt 0.060661 0.253420
vt 0.139720 0.252425
vt 0.138662 0.274755
vt 0.060689 0.275627
vt 0.396348 0.268123
vt 0.876069 0.244125
vt 0.876548 0.266327
vt 0.798575 0.267233
vt 0.797008 0.244932
vt 0.883457 0.883635
vt 0.805477 0.884632
vt 0.547403 0.891492
vt 0.475549 0.879665
vt 0.403984 0.893129
vt 0.145821 0.892151
vt 0.067838 0.892932
vt 0.398020 0.161088
vt 0.137494 0.174102
vt 0.449783 0.077287
vt 0.442372 0.054919
vt 0.694174 0.030348
vt 0.696298 0.051922
vt 0.407201 0.991831
vt 0.146464 0.984131
vt 0.147234 0.905783
vt 0.723442 0.989023
vt 0.723443 0.372137
vt 0.984302 0.372138
vt 0.984300 0.989024
vt 0.434518 0.077135
vt 0.188554 0.046888
vt 0.191106 0.025360
vt 0.536692 0.159505
vt 0.797447 0.166577
vt 0.462584 0.989022
vt 0.462586 0.372136
vt 0.546435 0.990241
vt 0.804374 0.898292
vt 0.806929 0.976603
vt 0.442489 0.043133
vt 0.694246 0.017600
vt 0.707151 0.028946
vt 0.709298 0.050771
vt 0.698900 0.064631
vt 0.442004 0.091936
vt 0.185699 0.059542
vt 0.175580 0.045478
vt 0.178160 0.023700
vt 0.191287 0.012613
vt 0.698642 0.110739
vt 0.445333 0.130711
vt 0.445328 0.121746
vt 0.697955 0.102475
vt 0.192832 0.100824
vt 0.192090 0.109083
vt 0.883434 0.897162
vt 0.068169 0.906455
vt 0.445349 0.115508
vt 0.445363 0.111296
vt 0.701973 0.091077
vt 0.700450 0.095845
vt 0.713596 0.117346
vt 0.700499 0.119893
vt 0.707172 0.109042
vt 0.712687 0.112739
vt 0.445262 0.141103
vt 0.188890 0.089400
vt 0.190382 0.094178
vt 0.190171 0.118223
vt 0.177091 0.115585
vt 0.178032 0.110984
vt 0.183572 0.107326
vn 0.000000 1.000000 -0.000000
vn 0.000000 1.000000 -0.000000
vn 0.000000 1.000000 -0.000000
vn 0.000000 1.000000 -0.000000
vn 0.000000 -0.000000 -1.000000
vn 0.000000 -0.000000 -1.000000
vn 0.000000 -0.000000 -1.000000
vn 0.000000 -0.000000 -1.000000
vn 0.000000 -1.000000 0.000000
vn 0.000000 -1.000000 0.000000
vn 0.000000 -1.000000 0.000000
vn 0.000000 -1.000000 0.000000
vn 0.000000 0.000000 1.000000
vn 0.000000 0.000000 1.000000
vn 0.000000 0.000000 1.000000
vn 0.000000 0.000000 1.000000
vn 1.000000 0.000000 0.000000
vn 1.000000 0.000000 0.000000
vn 1.000000 0.000000 0.000000
vn 1.000000 0.000000 0.000000
vn -1.000000 0.000000 -0.000000
vn -1.000000 0.000000 -0.000000
vn -1.000000 0.000000 -0.000000
vn -1.000000 0.000000 -0.000000
vn -1.000000 0.000000 -0.000000
vn -1.000000 0.000000 -0.000000
vn -1.000000 0.000000 -0.000000
vn -1.000000 0.000000 -0.000000
vn 0.000000 -0.000000 -1.000000
vn 0.000000 -0.000000 -1.000000
vn 0.000000 -0.000000 -1.000000
vn 0.000000 -0.000000 -1.000000
vn 1.000000 0.000000 0.000000
vn 1.000000 0.000000 0.000000
vn 1.000000 0.000000 0.000000
vn 1.000000 0.000000 0.000000
vn 0.000000 0.000000 1.000000
vn 0.000000 0.000000 1.000000
vn 0.000000 0.000000 1.000000
vn 0.000000 0.000000 1.000000
vn 0.000000 -1.000000 0.000000
vn 0.000000 -1.000000 0.000000
vn 0.000000 -1.000000 0.000000
vn 0.000000 -1.000000 0.000000
vn 1.000000 0.000000 0.000000
vn 1.000000 0.000000 0.000000
vn 1.000000 0.000000 0.000000
vn 1.000000 0.000000 0.000000
vn -1.000000 0.000000 -0.000000
vn -1.000000 0.000000 -0.000000
vn -1.000000 0.000000 -0.000000
vn -1.000000 0.000000 -0.000000
vn 1.000000 0.000000 0.000000
vn 1.000000 0.000000 0.000000
vn 1.000000 0.000000 0.000000
vn 1.000000 0.000000 0.000000
vn 0.000000 1.000000 -0.000000
vn 0.000000 1.000000 -0.000000
vn 0.000000 1.000000 -0.000000
vn 0.000000 1.000000 -0.000000
vn -1.000000 0.000000 -0.000000
vn -1.000000 0.000000 -0.000000
vn -1.000000 0.000000 -0.000000
vn -1.000000 0.000000 -0.000000
vn 0.000000 0.000000 1.000000
vn 0.000000 0.000000 1.000000
vn 0.000000 0.000000 1.000000
vn 0.000000 0.000000 1.000000
vn 0.000000 -0.000000 -1.000000
vn 0.000000 -0.000000 -1.000000
vn 0.000000 -0.000000 -1.000000
vn 0.000000 -0.000000 -1.000000
vn 0.000000 -1.000000 0.000000
vn 0.000000 -1.000000 0.000000
vn 0.000000 -1.000000 0.000000
vn 0.000000 -1.000000 0.000000
vn 0.000000 0.000000 1.000000
vn 0.000000 0.000000 1.000000
vn 0.000000 0.000000 1.000000
vn 0.000000 0.000000 1.000000
vn 0.000000 1.000000 -0.000000
vn 0.000000 1.000000 -0.000000
vn 0.000000 1.000000 -0.000000
vn 0.000000 1.000000 -0.000000
vn 0.000000 -0.000000 -1.000000
vn 0.000000 -0.000000 -1.000000
vn 0.000000 -0.000000 -1.000000
vn 0.000000 -0.000000 -1.000000
vn 0.000000 -1.000000 0.000000
vn 0.000000 -1.000000 0.000000
vn 0.000000 -1.000000 0.000000
vn 0.000000 -1.000000 0.000000
vn 0.000000 0.000000 1.000000
vn 0.000000 0.000000 1.000000
vn 0.000000 0.000000 1.000000
vn 0.000000 0.000000 1.000000
vn 0.000000 1.000000 -0.000000
vn 0.000000 1.000000 -0.000000
vn 0.000000 1.000000 -0.000000
vn 0.000000 1.000000 -0.000000
vn 0.000000 1.000000 -0.000000
vn 0.000000 1.000000 -0.000000
vn 0.000000 1.000000 -0.000000
vn 0.000000 1.000000 -0.000000
vn -1.000000 0.000000 -0.000000
vn -1.000000 0.000000 -0.000000
vn -1.000000 0.000000 -0.000000
vn -1.000000 0.000000 -0.000000
vn 0.000000 -1.000000 0.000000
vn 0.000000 -1.000000 0.000000
vn 0.000000 -1.000000 0.000000
vn 0.000000 -1.000000 0.000000
vn -0.999993 0.003845 -0.000061
vn -0.999993 0.003845 -0.000061
vn -0.999993 0.003845 -0.000061
vn -0.999993 0.003845 -0.000061
vn 0.000000 0.000000 1.000000
vn 0.000000 0.000000 1.000000
vn 0.000000 0.000000 1.000000
vn 0.000000 0.000000 1.000000
vn -1.000000 0.000000 -0.000000
vn -1.000000 0.000000 -0.000000
vn -1.000000 0.000000 -0.000000
vn -1.000000 0.000000 -0.000000
vn 0.000000 -0.000000 -1.000000
vn 0.000000 -0.000000 -1.000000
vn 0.000000 -0.000000 -1.000000
vn 0.000000 -0.000000 -1.000000
vn 0.000000 -0.000000 -1.000000
vn 0.000000 -0.000000 -1.000000
vn 0.000000 -0.000000 -1.000000
vn 0.000000 -0.000000 -1.000000
vn 1.000000 0.000000 0.000000
vn 1.000000 0.000000 0.000000
vn 1.000000 0.000000 0.000000
vn 1.000000 0.000000 0.000000
vn 1.000000 0.000000 0.000000
vn 1.000000 0.000000 0.000000
vn 1.000000 0.000000 0.000000
vn 1.000000 0.000000 0.000000
vn 0.000000 0.000000 1.000000
vn 0.000000 0.000000 1.000000
vn 0.000000 0.000000 1.000000
vn 0.000000 0.000000 1.000000
vn 0.000000 -1.000000 0.000000
vn 0.000000 -1.000000 0.000000
vn 0.000000 -1.000000 0.000000
vn 0.000000 -1.000000 0.000000
vn 0.000000 0.000000 1.000000
vn 0.000000 0.000000 1.000000
vn 0.000000 0.000000 1.000000
vn 0.000000 0.000000 1.000000
vn 0.000000 0.000000 1.000000
vn 0.000000 1.000000 -0.000000
vn 0.000000 1.000000 -0.000000
vn 0.000000 1.000000 -0.000000
vn 0.000000 1.000000 -0.000000
vn 0.000000 -1.000000 0.000000
vn 0.000000 -1.000000 0.000000
vn 0.000000 -1.000000 0.000000
vn 0.000000 -1.000000 0.000000
vn 0.000000 1.000000 -0.000000
vn 0.000000 1.000000 -0.000000
vn 0.000000 1.000000 -0.000000
vn 0.000000 1.000000 -0.000000
vn -1.000000 0.000000 -0.000000
vn -1.000000 0.000000 -0.000000
vn -1.000000 0.000000 -0.000000
vn -1.000000 0.000000 -0.000000
vn -1.000000 0.000000 -0.000000
vn -0.707122 -0.707091 0.000000
vn -0.707122 -0.707091 0.000000
vn -0.707122 -0.707091 0.000000
vn -0.707122 -0.707091 0.000000
vn 0.000000 -0.707107 0.707107
vn 0.000000 -0.707107 0.707107
vn 0.000000 -0.707107 0.707107
vn 0.000000 -0.707107 0.707107
s off
g wall_corner_2:wall_corner_1
usemtl initialShadingGroup
f 1/1/1 2/2/2 4/3/3 3/4/4
f 10/5/5 11/6/6 6/7/7 5/8/8
f 5/8/9 6/7/10 8/9/11 7/10/12
f 13/11/13 14/12/14 15/13/15 16/14/16
f 12/15/17 8/9/18 6/7/19 11/6/20
f 19/16/21 20/17/22 21/18/23 22/19/24
f 21/18/25 20/17/26 34/20/27 35/21/28
f 36/22/29 37/23/30 11/6/31 10/5/32
f 38/24/33 12/15/34 11/6/35 37/23/36
f 16/14/37 15/13/38 39/25/39 32/26/40
f 7/27/41 8/9/42 14/12/43 13/28/44
f 8/9/45 12/15/46 15/13/47 14/12/48
f 26/29/49 25/30/50 27/31/51 28/32/52
f 12/15/53 38/24/54 39/25/55 15/13/56
f 2/2/57 1/33/58 18/34/59 17/35/60
f 33/36/61 9/37/62 16/38/63 32/39/64
f 25/30/65 29/40/66 30/41/67 31/42/68
f 10/5/69 5/8/70 22/19/71 21/18/72
f 5/8/73 7/43/74 19/44/75 22/19/76
f 9/37/77 33/36/78 34/45/79 20/46/80
f 1/47/81 3/4/82 24/48/83 23/49/84
f 36/22/85 10/5/86 21/18/87 35/21/88
f 25/30/89 7/50/90 13/51/91 27/31/92
f 13/52/93 16/53/94 28/32/95 27/31/96
f 16/54/97 9/55/98 26/29/99 28/32/100
f 29/40/101 9/55/102 20/56/103 30/41/104
f 20/57/105 19/58/106 31/42/107 30/41/108
f 19/59/109 7/50/110 25/30/111 31/42/112
f 41/60/113 40/61/114 43/62/115 45/63/116
f 47/64/117 43/62/118 40/61/119 42/65/120
f 35/21/121 34/20/122 23/66/123 24/48/124
f 3/4/125 36/22/126 35/21/127 24/48/128
f 3/4/129 4/3/130 37/23/131 36/22/132
f 2/2/133 38/24/134 37/23/135 4/3/136
f 39/25/137 38/24/138 2/2/139 17/35/140
f 32/26/141 39/25/142 17/35/143 18/67/144
f 44/68/145 33/69/146 32/70/147 46/71/148
f 32/72/149 18/73/150 41/60/151 45/74/152 46/75/153
f 18/73/154 1/76/155 40/61/156 41/60/157
f 34/77/158 33/69/159 44/68/160 48/78/161
f 1/76/162 23/79/163 42/65/164 40/61/165
f 23/79/166 34/80/167 48/81/168 47/82/169 42/65/170
f 43/62/171 44/68/172 46/71/173 45/63/174
f 44/68/175 43/62/176 47/64/177 48/78/178
